<svg width="390" height="83" viewBox="0 0 390 83" fill="none" xmlns="http://www.w3.org/2000/svg">
<path d="M0.228734 -0.0364849L390.158 0.103215L369.469 55.6818C367.366 61.3299 362.088 65.1712 356.067 65.4346L0.261989 81.0007L0.228734 -0.0364849Z" fill="#20C85F"/>
<path d="M62.4482 49.7539C58.1025 49.7539 55.3193 48.2891 54.0986 45.3105C53.6592 44.2852 53.415 43.4062 53.415 42.6738C53.415 41.7461 54.0986 41.2578 55.4658 41.2578C56.5889 41.2578 57.126 41.502 57.126 41.9414C57.1748 43.1621 57.5166 44.1387 58.0537 44.7734C58.8838 45.7012 60.4463 46.1406 62.6924 46.1406C64.7432 46.1406 66.2568 45.75 67.2334 44.9688C68.1611 44.1875 68.6494 42.9668 68.6494 41.3066C68.6494 38.3281 66.5498 36.8145 62.3506 36.8145C58.8838 36.375 56.4424 34.9102 55.0264 32.3223C54.6357 31.4922 54.4404 30.6621 54.4404 29.832C54.4893 27.2441 55.4658 25.2422 57.3213 23.7285C58.835 22.6055 60.4951 22.0195 62.3018 22.0195C65.1826 22.0195 67.3799 23.0938 68.9424 25.2422C69.7725 26.4629 70.2119 27.7324 70.2607 29.0996C70.2607 29.5879 69.9189 29.832 69.2842 29.832C68.8447 29.832 68.6494 29.7344 68.6006 29.4902C68.3564 27.1953 67.1846 25.6816 65.1338 24.8516C64.3525 24.6074 63.5713 24.4609 62.7412 24.4609C61.374 24.4609 60.2021 24.8516 59.2256 25.6328C58.0049 26.6582 57.3701 28.0254 57.3701 29.6855C57.3701 30.9551 58.1025 31.9805 59.6162 32.8105C60.6416 33.3477 61.667 33.5918 62.7412 33.6406C66.6963 33.6406 69.4795 34.959 71.0908 37.5469C71.7256 38.8652 72.0674 40.1348 72.0674 41.3555C72.0674 43.8457 71.335 45.7988 69.9189 47.3125C68.5029 48.5332 66.9404 49.2656 65.2314 49.5098C64.3037 49.6562 63.376 49.7539 62.4482 49.7539ZM86.3252 50.3398C85.0068 50.3398 83.6396 50.1934 82.1748 49.9492C80.7588 49.7051 79.3916 49.0703 78.0732 47.9961C76.2178 46.1895 75.29 43.5527 75.29 40.0859C75.29 38.4746 75.5342 37.0586 76.0225 35.7891C77.3408 31.9805 79.9287 30.0762 83.835 30.0762C85.8857 30.0762 87.79 30.7109 89.5967 31.9805C90.7197 32.7129 91.5986 33.8359 92.1846 35.252C92.3799 35.7402 92.4287 36.2773 92.4287 36.8633C92.4287 37.9375 92.1357 38.8652 91.5498 39.6465C90.5244 41.0625 88.9131 42.1367 86.8135 42.8203C86.0811 43.0156 85.3486 43.0645 84.5674 43.0645C82.5654 43.0645 80.71 42.625 78.9521 41.6973C79.2939 44.334 80.6611 45.8477 82.9561 46.2383C83.835 46.3359 84.7139 46.4336 85.6416 46.4336C86.3252 46.4336 87.7412 46.2871 89.9385 46.0918C90.8662 46.0918 91.3545 46.9219 91.3545 48.582C91.3545 49.4609 91.208 49.9004 90.8662 49.9492C88.6201 50.1934 87.1064 50.3398 86.3252 50.3398ZM83.5908 40.8184L84.5674 40.7695L85.4951 40.623C85.6416 40.5254 85.7881 40.4766 85.9834 40.4277C86.1787 40.3789 86.374 40.3301 86.5693 40.1836C86.7646 40.0859 86.96 39.9883 87.1553 39.8906C87.5459 39.7441 88.083 39.3535 88.7666 38.7188C89.2549 38.0352 89.499 37.4492 89.499 36.9121C89.499 36.082 88.9619 35.3008 87.8877 34.6172C86.7158 33.8359 85.3975 33.3965 84.0791 33.3965L82.6143 33.543C80.1729 34.0801 78.9521 36.1309 78.9033 39.793C80.4658 40.4766 82.0283 40.8184 83.5908 40.8184ZM103.562 50.4375C99.8018 50.3887 97.1162 48.8262 95.5537 45.7988C94.7725 44.1875 94.3818 42.3809 94.3818 40.3789C94.3818 37.6934 94.8701 35.4961 95.8955 33.7871C97.5068 31.2969 99.8506 30.0762 102.927 30.0762C105.173 30.0762 107.321 30.8086 109.323 32.3223C109.372 32.3711 109.421 32.4688 109.421 32.5664C109.421 32.8105 109.372 33.0059 109.226 33.2012C109.03 33.5918 108.835 33.7871 108.64 33.7871C106.931 32.9082 105.271 32.4688 103.757 32.4688C101.364 32.4688 99.6064 33.3965 98.5322 35.2031C97.8975 36.3262 97.6045 37.8887 97.6045 39.9883C97.6045 41.5996 97.8975 42.9668 98.4834 44.0898C99.4111 45.8965 100.925 46.8242 103.122 46.873C104.782 46.873 106.442 46.043 108.054 44.4316C108.103 44.3828 108.2 44.334 108.298 44.334C108.688 44.334 109.226 44.6758 109.909 45.3594C110.593 46.043 110.935 46.5312 110.935 46.8242C110.935 46.9219 110.886 46.9707 110.837 47.0195C109.519 48.3379 107.858 49.3633 105.856 50.0957C104.929 50.3398 104.147 50.4375 103.562 50.4375ZM119.968 46.9707C121.384 46.9707 122.751 46.3359 124.069 45.0664C125.632 43.4551 126.413 41.5508 126.413 39.3535C126.413 38.2793 126.169 37.2539 125.583 36.2773C124.851 35.2031 123.874 34.666 122.653 34.666H122.165C121.823 34.6172 121.53 34.1777 121.188 33.2988C121.188 33.543 121.14 33.6895 121.042 33.7383C119.577 34.2266 118.356 35.1543 117.38 36.5215C116.208 38.1328 115.622 39.8418 115.622 41.7461C115.622 43.0156 115.915 44.1875 116.599 45.1641C117.429 46.3359 118.552 46.9707 119.968 46.9707ZM120.261 50.3398C117.575 50.3398 115.524 49.2656 114.06 47.1172C113.132 45.5547 112.692 43.9434 112.692 42.332C112.692 39.6953 113.62 37.3027 115.476 35.1543C116.843 33.5918 118.503 32.5664 120.554 32.0781C120.749 32.0781 120.944 32.2734 121.042 32.6152C120.993 32.3223 120.993 32.0293 120.993 31.7363C120.993 31.1016 121.14 30.7598 121.433 30.7109C121.774 30.6621 122.067 30.6621 122.312 30.6621C125.046 30.6621 127.146 31.7852 128.61 34.0312C129.636 35.7402 130.173 37.4492 130.173 39.1582C130.173 39.8418 130.075 40.5254 129.929 41.209C129.44 43.6504 128.366 45.7012 126.706 47.459C124.997 49.168 122.849 50.1445 120.261 50.3398ZM147.751 50.3887C146.335 50.3887 145.651 50.1934 145.651 49.7539C145.993 48.2402 146.237 46.4824 146.481 44.5293C146.823 42.2344 146.97 40.7207 146.97 40.0859C146.97 37.4004 146.091 35.5449 144.333 34.6172C143.356 34.0801 142.233 33.7871 141.013 33.7871C139.792 33.7871 138.522 33.9824 137.204 34.3242C136.911 36.0332 136.716 37.7422 136.667 39.5C136.618 41.2578 136.521 43.0156 136.472 44.8223C136.374 48.2891 136.13 50.0957 135.69 50.1934C135.251 50.3398 134.909 50.3887 134.567 50.3887C134.226 50.3887 134.03 50.3398 133.981 50.291C133.249 46.9219 132.858 43.3574 132.81 39.5977C132.81 35.5449 133.444 31.834 134.665 28.3672C134.714 28.3184 134.812 28.2695 135.007 28.2695C135.349 28.2695 135.935 28.416 136.765 28.7578C137.985 29.2461 138.571 29.5879 138.571 29.832C138.132 30.7598 137.79 31.7363 137.546 32.7617C138.962 32.2246 140.427 31.9805 141.892 31.9805C144.382 31.9805 146.433 33.1035 148.142 35.3008C148.776 36.5703 149.167 37.8398 149.216 39.1582C149.216 40.5742 149.167 41.7949 149.069 42.7715C149.021 43.2598 148.972 43.6992 148.972 44.0898C148.923 44.5293 148.923 44.9199 148.874 45.3105C148.825 45.7012 148.776 46.0918 148.728 46.4336C148.483 49.0215 148.19 50.3398 147.751 50.3887ZM161.179 50.3887C158.542 50.3887 156.345 49.5098 154.587 47.752C153.513 46.4336 152.976 44.7246 152.976 42.7227C152.976 42.1855 153.024 41.6484 153.122 41.1113C153.562 38.1816 154.733 35.9355 156.638 34.373C157.712 33.4941 158.933 32.7617 160.251 32.2246C160.349 32.2246 160.446 32.1758 160.593 32.127C160.739 32.0781 160.935 31.9805 161.276 31.9316C162.106 31.7363 162.888 31.6387 163.522 31.6387C164.255 31.6387 165.134 31.7852 166.159 32.0293C166.257 28.6113 166.354 25.2422 166.501 21.9707C166.55 21.5312 166.892 21.3359 167.526 21.3359C167.868 21.3359 168.063 21.4824 168.112 21.7266C168.356 26.0234 168.601 30.418 168.796 34.959C168.942 36.9121 168.991 38.2793 168.991 39.0117C168.991 39.9883 168.942 41.0137 168.845 42.0391C168.601 45.5059 167.331 47.9473 165.085 49.3145C163.913 50.0469 162.595 50.3887 161.179 50.3887ZM161.276 47.1172C163.083 47.1172 164.353 46.3359 164.987 44.8223C165.769 43.3574 166.159 40.9648 166.159 37.6934L166.11 35.4961L163.229 35.3984C161.96 35.3984 160.642 35.8867 159.274 36.9121C158.591 37.3516 158.054 37.8887 157.712 38.5234C156.882 39.9395 156.442 41.4043 156.442 42.918C156.442 44.5781 156.931 45.6523 157.956 46.1406C158.981 46.7754 160.104 47.1172 161.276 47.1172ZM192.966 50.7305C191.257 50.7305 189.694 50.3887 188.278 49.7051C185.788 48.2891 184.274 45.9941 183.688 42.7715C183.444 41.209 183.298 39.0605 183.298 36.2773C183.298 31.8828 183.981 28.2695 185.349 25.3887C186.96 22.5078 189.45 21.043 192.868 21.043C197.897 21.043 200.778 23.7285 201.56 29.0508C201.56 29.5879 201.169 29.832 200.437 29.832C200.241 29.832 200.095 29.7344 199.997 29.5879C199.069 25.584 196.97 23.582 193.698 23.582L192.233 23.6797C188.474 24.2168 186.569 28.2207 186.569 35.6914C186.569 38.4258 186.667 40.4766 186.911 41.8926C187.546 45.3105 189.304 47.0684 192.282 47.1172C193.454 47.1172 194.479 47.0195 195.31 46.8242C196.921 46.3848 197.995 45.1152 198.581 42.918C198.728 42.5762 199.118 42.3809 199.753 42.3809C200.437 42.3809 201.022 42.4785 201.56 42.6738C202.097 42.918 202.341 43.2109 202.341 43.6016C201.218 48.3379 198.093 50.7305 192.966 50.7305ZM208.493 50.3887C207.956 50.3887 207.712 50.3398 207.663 50.2422C206.833 44.7246 206.442 39.5488 206.442 34.666C206.442 30.4668 207.224 26.1211 208.786 21.6777C208.835 21.5312 209.079 21.4824 209.47 21.4824C210.69 21.7266 211.667 22.2148 212.351 23.0449C211.081 25.9258 210.3 29.0996 209.958 32.5664L210.202 32.4688C211.472 31.6387 212.937 31.1016 214.646 30.8574C217.038 30.8574 218.894 31.4434 220.114 32.6641C220.407 32.8105 220.896 33.543 221.579 34.7637C222.214 36.5703 222.507 38.4746 222.507 40.5254C222.507 41.4531 222.409 42.3809 222.263 43.3086C221.921 45.7012 221.384 47.8984 220.603 49.998C220.554 50.0469 220.358 50.0957 220.065 50.0957C219.919 50.0957 219.772 50.0957 219.626 50.0469C219.479 49.998 219.333 49.9492 219.187 49.8516C219.04 49.8027 218.942 49.7051 218.942 49.6562C219.382 47.166 219.626 44.6758 219.626 42.1855C219.626 40.3301 219.382 38.5723 218.894 36.8633C218.552 35.8867 218.112 35.2031 217.526 34.8613C216.892 34.5195 216.11 34.3242 215.134 34.3242C213.327 34.666 211.472 35.6914 209.665 37.4004C209.616 39.5488 209.567 41.5508 209.567 43.4062C209.519 46.1895 209.421 48.3867 209.274 49.998C209.274 50.1445 209.03 50.2422 208.493 50.3887ZM239.694 50.3398L239.45 50.1934C239.011 49.9004 238.571 49.5586 238.181 49.168C238.181 49.1191 238.181 49.1191 238.132 49.1191C236.618 49.6562 235.251 49.9004 233.933 49.9004C230.954 49.9004 228.708 48.7285 227.194 46.4336C226.657 45.5059 226.413 44.5293 226.413 43.6016C226.413 43.1133 226.462 42.625 226.608 42.1367C227.146 40.7207 228.024 39.6465 229.245 38.9141C230.271 38.377 231.296 38.1328 232.321 38.1328C234.323 38.1328 236.13 38.7676 237.839 39.9883C237.839 38.2793 237.595 37.0586 237.106 36.4238C235.739 34.373 232.956 33.3477 228.806 33.3477H227.39C227.146 33.3477 226.95 32.7617 226.804 31.541C226.804 31.3945 226.853 31.3457 226.901 31.2969C228.464 30.7598 230.173 30.4668 231.979 30.4668C235.495 30.4668 238.181 31.6387 239.987 33.9336C241.208 35.252 241.794 37.0586 241.794 39.4023C241.794 40.8184 241.55 42.5273 241.11 44.5781C240.964 45.0664 240.915 45.457 240.915 45.75C240.915 45.9453 240.915 46.043 240.964 46.0918V46.1895C241.11 46.3359 241.306 46.4824 241.55 46.6289C241.599 46.6289 241.599 46.6777 241.599 46.7754C241.599 47.1172 241.403 47.752 240.964 48.6309C240.427 49.7539 239.987 50.3398 239.694 50.3398ZM234.226 47.4102C235.153 47.3125 236.032 47.1172 236.96 46.7754C236.911 46.5312 236.862 46.2871 236.862 46.043C236.862 45.1152 236.96 44.3828 237.155 43.8457C237.351 43.1621 237.546 42.332 237.692 41.4043C236.081 40.4766 234.47 39.9883 232.761 39.9883C231.882 39.9883 231.101 40.1836 230.417 40.5742C229.196 41.3555 228.61 42.2832 228.61 43.4062C228.61 43.9922 228.757 44.5293 229.099 45.0664C230.026 46.6289 231.589 47.4102 233.688 47.4102H234.226ZM261.618 50.3887C260.202 50.3887 259.519 50.1934 259.519 49.7539C259.86 48.2402 260.104 46.4824 260.349 44.5293C260.69 42.2344 260.837 40.7207 260.837 40.0859C260.837 37.4004 259.958 35.5449 258.2 34.6172C257.224 34.0801 256.101 33.7871 254.88 33.7871C253.659 33.7871 252.39 33.9824 251.071 34.3242C250.778 36.0332 250.583 37.7422 250.534 39.5C250.485 41.2578 250.388 43.0156 250.339 44.8223C250.241 48.2891 249.997 50.0957 249.558 50.1934C249.118 50.3398 248.776 50.3887 248.435 50.3887C248.093 50.3887 247.897 50.3398 247.849 50.291C247.116 46.9219 246.726 43.3574 246.677 39.5977C246.677 35.5449 247.312 31.834 248.532 28.3672C248.581 28.3184 248.679 28.2695 248.874 28.2695C249.216 28.2695 249.802 28.416 250.632 28.7578C251.853 29.2461 252.438 29.5879 252.438 29.832C251.999 30.7598 251.657 31.7363 251.413 32.7617C252.829 32.2246 254.294 31.9805 255.759 31.9805C258.249 31.9805 260.3 33.1035 262.009 35.3008C262.644 36.5703 263.034 37.8398 263.083 39.1582C263.083 40.5742 263.034 41.7949 262.937 42.7715C262.888 43.2598 262.839 43.6992 262.839 44.0898C262.79 44.5293 262.79 44.9199 262.741 45.3105C262.692 45.7012 262.644 46.0918 262.595 46.4336C262.351 49.0215 262.058 50.3398 261.618 50.3887ZM276.413 50.4375C272.653 50.3887 269.968 48.8262 268.405 45.7988C267.624 44.1875 267.233 42.3809 267.233 40.3789C267.233 37.6934 267.722 35.4961 268.747 33.7871C270.358 31.2969 272.702 30.0762 275.778 30.0762C278.024 30.0762 280.173 30.8086 282.175 32.3223C282.224 32.3711 282.272 32.4688 282.272 32.5664C282.272 32.8105 282.224 33.0059 282.077 33.2012C281.882 33.5918 281.687 33.7871 281.491 33.7871C279.782 32.9082 278.122 32.4688 276.608 32.4688C274.216 32.4688 272.458 33.3965 271.384 35.2031C270.749 36.3262 270.456 37.8887 270.456 39.9883C270.456 41.5996 270.749 42.9668 271.335 44.0898C272.263 45.8965 273.776 46.8242 275.974 46.873C277.634 46.873 279.294 46.043 280.905 44.4316C280.954 44.3828 281.052 44.334 281.149 44.334C281.54 44.334 282.077 44.6758 282.761 45.3594C283.444 46.043 283.786 46.5312 283.786 46.8242C283.786 46.9219 283.737 46.9707 283.688 47.0195C282.37 48.3379 280.71 49.3633 278.708 50.0957C277.78 50.3398 276.999 50.4375 276.413 50.4375ZM296.481 50.3398C295.163 50.3398 293.796 50.1934 292.331 49.9492C290.915 49.7051 289.548 49.0703 288.229 47.9961C286.374 46.1895 285.446 43.5527 285.446 40.0859C285.446 38.4746 285.69 37.0586 286.179 35.7891C287.497 31.9805 290.085 30.0762 293.991 30.0762C296.042 30.0762 297.946 30.7109 299.753 31.9805C300.876 32.7129 301.755 33.8359 302.341 35.252C302.536 35.7402 302.585 36.2773 302.585 36.8633C302.585 37.9375 302.292 38.8652 301.706 39.6465C300.681 41.0625 299.069 42.1367 296.97 42.8203C296.237 43.0156 295.505 43.0645 294.724 43.0645C292.722 43.0645 290.866 42.625 289.108 41.6973C289.45 44.334 290.817 45.8477 293.112 46.2383C293.991 46.3359 294.87 46.4336 295.798 46.4336C296.481 46.4336 297.897 46.2871 300.095 46.0918C301.022 46.0918 301.511 46.9219 301.511 48.582C301.511 49.4609 301.364 49.9004 301.022 49.9492C298.776 50.1934 297.263 50.3398 296.481 50.3398ZM293.747 40.8184L294.724 40.7695L295.651 40.623C295.798 40.5254 295.944 40.4766 296.14 40.4277C296.335 40.3789 296.53 40.3301 296.726 40.1836C296.921 40.0859 297.116 39.9883 297.312 39.8906C297.702 39.7441 298.239 39.3535 298.923 38.7188C299.411 38.0352 299.655 37.4492 299.655 36.9121C299.655 36.082 299.118 35.3008 298.044 34.6172C296.872 33.8359 295.554 33.3965 294.235 33.3965L292.771 33.543C290.329 34.0801 289.108 36.1309 289.06 39.793C290.622 40.4766 292.185 40.8184 293.747 40.8184Z" fill="white"/>
</svg>
