<svg width="250" height="30" viewBox="0 0 250 30" fill="none" xmlns="http://www.w3.org/2000/svg">
<path d="M9.44824 28.7539C5.10254 28.7539 2.31934 27.2891 1.09863 24.3105C0.65918 23.2852 0.415039 22.4062 0.415039 21.6738C0.415039 20.7461 1.09863 20.2578 2.46582 20.2578C3.58887 20.2578 4.12598 20.502 4.12598 20.9414C4.1748 22.1621 4.5166 23.1387 5.05371 23.7734C5.88379 24.7012 7.44629 25.1406 9.69238 25.1406C11.7432 25.1406 13.2568 24.75 14.2334 23.9688C15.1611 23.1875 15.6494 21.9668 15.6494 20.3066C15.6494 17.3281 13.5498 15.8145 9.35059 15.8145C5.88379 15.375 3.44238 13.9102 2.02637 11.3223C1.63574 10.4922 1.44043 9.66211 1.44043 8.83203C1.48926 6.24414 2.46582 4.24219 4.32129 2.72852C5.83496 1.60547 7.49512 1.01953 9.30176 1.01953C12.1826 1.01953 14.3799 2.09375 15.9424 4.24219C16.7725 5.46289 17.2119 6.73242 17.2607 8.09961C17.2607 8.58789 16.9189 8.83203 16.2842 8.83203C15.8447 8.83203 15.6494 8.73438 15.6006 8.49023C15.3564 6.19531 14.1846 4.68164 12.1338 3.85156C11.3525 3.60742 10.5713 3.46094 9.74121 3.46094C8.37402 3.46094 7.20215 3.85156 6.22559 4.63281C5.00488 5.6582 4.37012 7.02539 4.37012 8.68555C4.37012 9.95508 5.10254 10.9805 6.61621 11.8105C7.6416 12.3477 8.66699 12.5918 9.74121 12.6406C13.6963 12.6406 16.4795 13.959 18.0908 16.5469C18.7256 17.8652 19.0674 19.1348 19.0674 20.3555C19.0674 22.8457 18.335 24.7988 16.9189 26.3125C15.5029 27.5332 13.9404 28.2656 12.2314 28.5098C11.3037 28.6562 10.376 28.7539 9.44824 28.7539ZM33.3252 29.3398C32.0068 29.3398 30.6396 29.1934 29.1748 28.9492C27.7588 28.7051 26.3916 28.0703 25.0732 26.9961C23.2178 25.1895 22.29 22.5527 22.29 19.0859C22.29 17.4746 22.5342 16.0586 23.0225 14.7891C24.3408 10.9805 26.9287 9.07617 30.835 9.07617C32.8857 9.07617 34.79 9.71094 36.5967 10.9805C37.7197 11.7129 38.5986 12.8359 39.1846 14.252C39.3799 14.7402 39.4287 15.2773 39.4287 15.8633C39.4287 16.9375 39.1357 17.8652 38.5498 18.6465C37.5244 20.0625 35.9131 21.1367 33.8135 21.8203C33.0811 22.0156 32.3486 22.0645 31.5674 22.0645C29.5654 22.0645 27.71 21.625 25.9521 20.6973C26.2939 23.334 27.6611 24.8477 29.9561 25.2383C30.835 25.3359 31.7139 25.4336 32.6416 25.4336C33.3252 25.4336 34.7412 25.2871 36.9385 25.0918C37.8662 25.0918 38.3545 25.9219 38.3545 27.582C38.3545 28.4609 38.208 28.9004 37.8662 28.9492C35.6201 29.1934 34.1064 29.3398 33.3252 29.3398ZM30.5908 19.8184L31.5674 19.7695L32.4951 19.623C32.6416 19.5254 32.7881 19.4766 32.9834 19.4277C33.1787 19.3789 33.374 19.3301 33.5693 19.1836C33.7646 19.0859 33.96 18.9883 34.1553 18.8906C34.5459 18.7441 35.083 18.3535 35.7666 17.7188C36.2549 17.0352 36.499 16.4492 36.499 15.9121C36.499 15.082 35.9619 14.3008 34.8877 13.6172C33.7158 12.8359 32.3975 12.3965 31.0791 12.3965L29.6143 12.543C27.1729 13.0801 25.9521 15.1309 25.9033 18.793C27.4658 19.4766 29.0283 19.8184 30.5908 19.8184ZM50.5615 29.4375C46.8018 29.3887 44.1162 27.8262 42.5537 24.7988C41.7725 23.1875 41.3818 21.3809 41.3818 19.3789C41.3818 16.6934 41.8701 14.4961 42.8955 12.7871C44.5068 10.2969 46.8506 9.07617 49.9268 9.07617C52.1729 9.07617 54.3213 9.80859 56.3232 11.3223C56.3721 11.3711 56.4209 11.4688 56.4209 11.5664C56.4209 11.8105 56.3721 12.0059 56.2256 12.2012C56.0303 12.5918 55.835 12.7871 55.6396 12.7871C53.9307 11.9082 52.2705 11.4688 50.7568 11.4688C48.3643 11.4688 46.6064 12.3965 45.5322 14.2031C44.8975 15.3262 44.6045 16.8887 44.6045 18.9883C44.6045 20.5996 44.8975 21.9668 45.4834 23.0898C46.4111 24.8965 47.9248 25.8242 50.1221 25.873C51.7822 25.873 53.4424 25.043 55.0537 23.4316C55.1025 23.3828 55.2002 23.334 55.2979 23.334C55.6885 23.334 56.2256 23.6758 56.9092 24.3594C57.5928 25.043 57.9346 25.5312 57.9346 25.8242C57.9346 25.9219 57.8857 25.9707 57.8369 26.0195C56.5186 27.3379 54.8584 28.3633 52.8564 29.0957C51.9287 29.3398 51.1475 29.4375 50.5615 29.4375ZM66.9678 25.9707C68.3838 25.9707 69.751 25.3359 71.0693 24.0664C72.6318 22.4551 73.4131 20.5508 73.4131 18.3535C73.4131 17.2793 73.1689 16.2539 72.583 15.2773C71.8506 14.2031 70.874 13.666 69.6533 13.666H69.165C68.8232 13.6172 68.5303 13.1777 68.1885 12.2988C68.1885 12.543 68.1396 12.6895 68.042 12.7383C66.5771 13.2266 65.3564 14.1543 64.3799 15.5215C63.208 17.1328 62.6221 18.8418 62.6221 20.7461C62.6221 22.0156 62.915 23.1875 63.5986 24.1641C64.4287 25.3359 65.5518 25.9707 66.9678 25.9707ZM67.2607 29.3398C64.5752 29.3398 62.5244 28.2656 61.0596 26.1172C60.1318 24.5547 59.6924 22.9434 59.6924 21.332C59.6924 18.6953 60.6201 16.3027 62.4756 14.1543C63.8428 12.5918 65.5029 11.5664 67.5537 11.0781C67.749 11.0781 67.9443 11.2734 68.042 11.6152C67.9932 11.3223 67.9932 11.0293 67.9932 10.7363C67.9932 10.1016 68.1396 9.75977 68.4326 9.71094C68.7744 9.66211 69.0674 9.66211 69.3115 9.66211C72.0459 9.66211 74.1455 10.7852 75.6104 13.0312C76.6357 14.7402 77.1729 16.4492 77.1729 18.1582C77.1729 18.8418 77.0752 19.5254 76.9287 20.209C76.4404 22.6504 75.3662 24.7012 73.7061 26.459C71.9971 28.168 69.8486 29.1445 67.2607 29.3398ZM94.751 29.3887C93.335 29.3887 92.6514 29.1934 92.6514 28.7539C92.9932 27.2402 93.2373 25.4824 93.4814 23.5293C93.8232 21.2344 93.9697 19.7207 93.9697 19.0859C93.9697 16.4004 93.0908 14.5449 91.333 13.6172C90.3564 13.0801 89.2334 12.7871 88.0127 12.7871C86.792 12.7871 85.5225 12.9824 84.2041 13.3242C83.9111 15.0332 83.7158 16.7422 83.667 18.5C83.6182 20.2578 83.5205 22.0156 83.4717 23.8223C83.374 27.2891 83.1299 29.0957 82.6904 29.1934C82.251 29.3398 81.9092 29.3887 81.5674 29.3887C81.2256 29.3887 81.0303 29.3398 80.9814 29.291C80.249 25.9219 79.8584 22.3574 79.8096 18.5977C79.8096 14.5449 80.4443 10.834 81.665 7.36719C81.7139 7.31836 81.8115 7.26953 82.0068 7.26953C82.3486 7.26953 82.9346 7.41602 83.7646 7.75781C84.9854 8.24609 85.5713 8.58789 85.5713 8.83203C85.1318 9.75977 84.79 10.7363 84.5459 11.7617C85.9619 11.2246 87.4268 10.9805 88.8916 10.9805C91.3818 10.9805 93.4326 12.1035 95.1416 14.3008C95.7764 15.5703 96.167 16.8398 96.2158 18.1582C96.2158 19.5742 96.167 20.7949 96.0693 21.7715C96.0205 22.2598 95.9717 22.6992 95.9717 23.0898C95.9229 23.5293 95.9229 23.9199 95.874 24.3105C95.8252 24.7012 95.7764 25.0918 95.7275 25.4336C95.4834 28.0215 95.1904 29.3398 94.751 29.3887ZM108.179 29.3887C105.542 29.3887 103.345 28.5098 101.587 26.752C100.513 25.4336 99.9756 23.7246 99.9756 21.7227C99.9756 21.1855 100.024 20.6484 100.122 20.1113C100.562 17.1816 101.733 14.9355 103.638 13.373C104.712 12.4941 105.933 11.7617 107.251 11.2246C107.349 11.2246 107.446 11.1758 107.593 11.127C107.739 11.0781 107.935 10.9805 108.276 10.9316C109.106 10.7363 109.888 10.6387 110.522 10.6387C111.255 10.6387 112.134 10.7852 113.159 11.0293C113.257 7.61133 113.354 4.24219 113.501 0.970703C113.55 0.53125 113.892 0.335938 114.526 0.335938C114.868 0.335938 115.063 0.482422 115.112 0.726562C115.356 5.02344 115.601 9.41797 115.796 13.959C115.942 15.9121 115.991 17.2793 115.991 18.0117C115.991 18.9883 115.942 20.0137 115.845 21.0391C115.601 24.5059 114.331 26.9473 112.085 28.3145C110.913 29.0469 109.595 29.3887 108.179 29.3887ZM108.276 26.1172C110.083 26.1172 111.353 25.3359 111.987 23.8223C112.769 22.3574 113.159 19.9648 113.159 16.6934L113.11 14.4961L110.229 14.3984C108.96 14.3984 107.642 14.8867 106.274 15.9121C105.591 16.3516 105.054 16.8887 104.712 17.5234C103.882 18.9395 103.442 20.4043 103.442 21.918C103.442 23.5781 103.931 24.6523 104.956 25.1406C105.981 25.7754 107.104 26.1172 108.276 26.1172ZM139.966 29.7305C138.257 29.7305 136.694 29.3887 135.278 28.7051C132.788 27.2891 131.274 24.9941 130.688 21.7715C130.444 20.209 130.298 18.0605 130.298 15.2773C130.298 10.8828 130.981 7.26953 132.349 4.38867C133.96 1.50781 136.45 0.0429688 139.868 0.0429688C144.897 0.0429688 147.778 2.72852 148.56 8.05078C148.56 8.58789 148.169 8.83203 147.437 8.83203C147.241 8.83203 147.095 8.73438 146.997 8.58789C146.069 4.58398 143.97 2.58203 140.698 2.58203L139.233 2.67969C135.474 3.2168 133.569 7.2207 133.569 14.6914C133.569 17.4258 133.667 19.4766 133.911 20.8926C134.546 24.3105 136.304 26.0684 139.282 26.1172C140.454 26.1172 141.479 26.0195 142.31 25.8242C143.921 25.3848 144.995 24.1152 145.581 21.918C145.728 21.5762 146.118 21.3809 146.753 21.3809C147.437 21.3809 148.022 21.4785 148.56 21.6738C149.097 21.918 149.341 22.2109 149.341 22.6016C148.218 27.3379 145.093 29.7305 139.966 29.7305ZM155.493 29.3887C154.956 29.3887 154.712 29.3398 154.663 29.2422C153.833 23.7246 153.442 18.5488 153.442 13.666C153.442 9.4668 154.224 5.12109 155.786 0.677734C155.835 0.53125 156.079 0.482422 156.47 0.482422C157.69 0.726562 158.667 1.21484 159.351 2.04492C158.081 4.92578 157.3 8.09961 156.958 11.5664L157.202 11.4688C158.472 10.6387 159.937 10.1016 161.646 9.85742C164.038 9.85742 165.894 10.4434 167.114 11.6641C167.407 11.8105 167.896 12.543 168.579 13.7637C169.214 15.5703 169.507 17.4746 169.507 19.5254C169.507 20.4531 169.409 21.3809 169.263 22.3086C168.921 24.7012 168.384 26.8984 167.603 28.998C167.554 29.0469 167.358 29.0957 167.065 29.0957C166.919 29.0957 166.772 29.0957 166.626 29.0469C166.479 28.998 166.333 28.9492 166.187 28.8516C166.04 28.8027 165.942 28.7051 165.942 28.6562C166.382 26.166 166.626 23.6758 166.626 21.1855C166.626 19.3301 166.382 17.5723 165.894 15.8633C165.552 14.8867 165.112 14.2031 164.526 13.8613C163.892 13.5195 163.11 13.3242 162.134 13.3242C160.327 13.666 158.472 14.6914 156.665 16.4004C156.616 18.5488 156.567 20.5508 156.567 22.4062C156.519 25.1895 156.421 27.3867 156.274 28.998C156.274 29.1445 156.03 29.2422 155.493 29.3887ZM186.694 29.3398L186.45 29.1934C186.011 28.9004 185.571 28.5586 185.181 28.168C185.181 28.1191 185.181 28.1191 185.132 28.1191C183.618 28.6562 182.251 28.9004 180.933 28.9004C177.954 28.9004 175.708 27.7285 174.194 25.4336C173.657 24.5059 173.413 23.5293 173.413 22.6016C173.413 22.1133 173.462 21.625 173.608 21.1367C174.146 19.7207 175.024 18.6465 176.245 17.9141C177.271 17.377 178.296 17.1328 179.321 17.1328C181.323 17.1328 183.13 17.7676 184.839 18.9883C184.839 17.2793 184.595 16.0586 184.106 15.4238C182.739 13.373 179.956 12.3477 175.806 12.3477H174.39C174.146 12.3477 173.95 11.7617 173.804 10.541C173.804 10.3945 173.853 10.3457 173.901 10.2969C175.464 9.75977 177.173 9.4668 178.979 9.4668C182.495 9.4668 185.181 10.6387 186.987 12.9336C188.208 14.252 188.794 16.0586 188.794 18.4023C188.794 19.8184 188.55 21.5273 188.11 23.5781C187.964 24.0664 187.915 24.457 187.915 24.75C187.915 24.9453 187.915 25.043 187.964 25.0918V25.1895C188.11 25.3359 188.306 25.4824 188.55 25.6289C188.599 25.6289 188.599 25.6777 188.599 25.7754C188.599 26.1172 188.403 26.752 187.964 27.6309C187.427 28.7539 186.987 29.3398 186.694 29.3398ZM181.226 26.4102C182.153 26.3125 183.032 26.1172 183.96 25.7754C183.911 25.5312 183.862 25.2871 183.862 25.043C183.862 24.1152 183.96 23.3828 184.155 22.8457C184.351 22.1621 184.546 21.332 184.692 20.4043C183.081 19.4766 181.47 18.9883 179.761 18.9883C178.882 18.9883 178.101 19.1836 177.417 19.5742C176.196 20.3555 175.61 21.2832 175.61 22.4062C175.61 22.9922 175.757 23.5293 176.099 24.0664C177.026 25.6289 178.589 26.4102 180.688 26.4102H181.226ZM208.618 29.3887C207.202 29.3887 206.519 29.1934 206.519 28.7539C206.86 27.2402 207.104 25.4824 207.349 23.5293C207.69 21.2344 207.837 19.7207 207.837 19.0859C207.837 16.4004 206.958 14.5449 205.2 13.6172C204.224 13.0801 203.101 12.7871 201.88 12.7871C200.659 12.7871 199.39 12.9824 198.071 13.3242C197.778 15.0332 197.583 16.7422 197.534 18.5C197.485 20.2578 197.388 22.0156 197.339 23.8223C197.241 27.2891 196.997 29.0957 196.558 29.1934C196.118 29.3398 195.776 29.3887 195.435 29.3887C195.093 29.3887 194.897 29.3398 194.849 29.291C194.116 25.9219 193.726 22.3574 193.677 18.5977C193.677 14.5449 194.312 10.834 195.532 7.36719C195.581 7.31836 195.679 7.26953 195.874 7.26953C196.216 7.26953 196.802 7.41602 197.632 7.75781C198.853 8.24609 199.438 8.58789 199.438 8.83203C198.999 9.75977 198.657 10.7363 198.413 11.7617C199.829 11.2246 201.294 10.9805 202.759 10.9805C205.249 10.9805 207.3 12.1035 209.009 14.3008C209.644 15.5703 210.034 16.8398 210.083 18.1582C210.083 19.5742 210.034 20.7949 209.937 21.7715C209.888 22.2598 209.839 22.6992 209.839 23.0898C209.79 23.5293 209.79 23.9199 209.741 24.3105C209.692 24.7012 209.644 25.0918 209.595 25.4336C209.351 28.0215 209.058 29.3398 208.618 29.3887ZM223.413 29.4375C219.653 29.3887 216.968 27.8262 215.405 24.7988C214.624 23.1875 214.233 21.3809 214.233 19.3789C214.233 16.6934 214.722 14.4961 215.747 12.7871C217.358 10.2969 219.702 9.07617 222.778 9.07617C225.024 9.07617 227.173 9.80859 229.175 11.3223C229.224 11.3711 229.272 11.4688 229.272 11.5664C229.272 11.8105 229.224 12.0059 229.077 12.2012C228.882 12.5918 228.687 12.7871 228.491 12.7871C226.782 11.9082 225.122 11.4688 223.608 11.4688C221.216 11.4688 219.458 12.3965 218.384 14.2031C217.749 15.3262 217.456 16.8887 217.456 18.9883C217.456 20.5996 217.749 21.9668 218.335 23.0898C219.263 24.8965 220.776 25.8242 222.974 25.873C224.634 25.873 226.294 25.043 227.905 23.4316C227.954 23.3828 228.052 23.334 228.149 23.334C228.54 23.334 229.077 23.6758 229.761 24.3594C230.444 25.043 230.786 25.5312 230.786 25.8242C230.786 25.9219 230.737 25.9707 230.688 26.0195C229.37 27.3379 227.71 28.3633 225.708 29.0957C224.78 29.3398 223.999 29.4375 223.413 29.4375ZM243.481 29.3398C242.163 29.3398 240.796 29.1934 239.331 28.9492C237.915 28.7051 236.548 28.0703 235.229 26.9961C233.374 25.1895 232.446 22.5527 232.446 19.0859C232.446 17.4746 232.69 16.0586 233.179 14.7891C234.497 10.9805 237.085 9.07617 240.991 9.07617C243.042 9.07617 244.946 9.71094 246.753 10.9805C247.876 11.7129 248.755 12.8359 249.341 14.252C249.536 14.7402 249.585 15.2773 249.585 15.8633C249.585 16.9375 249.292 17.8652 248.706 18.6465C247.681 20.0625 246.069 21.1367 243.97 21.8203C243.237 22.0156 242.505 22.0645 241.724 22.0645C239.722 22.0645 237.866 21.625 236.108 20.6973C236.45 23.334 237.817 24.8477 240.112 25.2383C240.991 25.3359 241.87 25.4336 242.798 25.4336C243.481 25.4336 244.897 25.2871 247.095 25.0918C248.022 25.0918 248.511 25.9219 248.511 27.582C248.511 28.4609 248.364 28.9004 248.022 28.9492C245.776 29.1934 244.263 29.3398 243.481 29.3398ZM240.747 19.8184L241.724 19.7695L242.651 19.623C242.798 19.5254 242.944 19.4766 243.14 19.4277C243.335 19.3789 243.53 19.3301 243.726 19.1836C243.921 19.0859 244.116 18.9883 244.312 18.8906C244.702 18.7441 245.239 18.3535 245.923 17.7188C246.411 17.0352 246.655 16.4492 246.655 15.9121C246.655 15.082 246.118 14.3008 245.044 13.6172C243.872 12.8359 242.554 12.3965 241.235 12.3965L239.771 12.543C237.329 13.0801 236.108 15.1309 236.06 18.793C237.622 19.4766 239.185 19.8184 240.747 19.8184Z" fill="white"/>
</svg>
