<svg width="142" height="144" viewBox="0 0 142 144" fill="none" xmlns="http://www.w3.org/2000/svg">
<path d="M115.118 75C127.609 78 116.403 120 74.4588 120C66.9641 149 49.9762 139 62.1555 106C62.1555 62.0933 22.2102 53 64.1541 53C86.6381 53 89.636 75 115.118 75Z" fill="white"/>
<path d="M55.9674 87C58.7942 97.0582 58.8568 102.177 58.5134 104.591C58.3327 105.862 57.2539 106.639 55.9922 106.874C31.8214 111.388 28.6111 109.124 14.4968 95C14.4968 76.4985 24.9939 58.5 37.9847 54C38.984 56 51.3442 70.5502 55.9674 87Z" fill="white"/>
<path d="M62.9785 107.573C75.4761 101.715 78.283 122.407 70.4769 133.79C68.6837 136.405 67.5045 138 67.5045 138C47.0046 142.5 10.3971 128.488 15.4785 102.073C15.4785 100.573 30.5776 122.761 62.9785 107.573V107.573Z" fill="white"/>
<path d="M15.5 102L28.5 117L33.5 132.5L32.2783 132.03C24.4501 129.019 16.9786 125.152 10 120.5V120.5V120.5C12.3279 114.847 14.1037 108.981 15.3028 102.986L15.5 102Z" fill="white"/>
<ellipse cx="76.9525" cy="76" rx="4.99645" ry="5" fill="#1CBB58"/>
<path d="M18.5058 45.6894L18.9351 45.8014C20.6699 46.1329 22.433 46.0146 24.1435 45.827C24.8429 46.3411 25.5965 46.8208 26.4412 47.1058C26.9383 47.2806 27.47 47.2216 27.9692 47.1583C29.1526 46.9835 30.2996 46.6849 31.4289 46.3556C32.1586 46.6609 32.9641 46.864 33.7515 46.7978C34.2172 46.721 34.6395 46.5293 35.0679 46.3658C38.3967 44.9753 41.5818 43.3507 44.8508 41.8617C45.4324 41.5908 46.0514 41.3829 46.6207 41.0921C48.4632 40.145 50.1994 39.0528 51.9424 37.976C52.3482 37.9043 52.7778 37.9478 53.1944 37.9796C54.6405 38.1297 56.0593 38.5083 57.4501 38.9323C58.904 39.2023 60.3494 39.5227 61.7861 39.874C62.2818 40.036 62.8026 40.0991 63.2953 40.2703C66.5033 41.1148 69.6669 42.1585 72.6929 43.4924C74.1333 44.1319 75.5408 44.8433 76.8689 45.6678C77.7149 46.1829 78.4976 46.7756 79.2946 47.3495C81.9642 49.2708 84.6149 51.2179 87.3929 53.0099C89.8293 54.5832 92.438 55.932 95.1633 57.0222C98.3806 58.3221 101.726 59.3487 105.14 60.0155C109.484 60.8596 113.99 61.0993 118.247 60.2868C119.49 60.0504 120.694 59.7058 121.908 59.3878C124.297 58.7344 126.68 58.0443 128.946 57.1284C129.807 56.7811 130.628 56.3679 131.432 55.931C131.542 56.1617 131.323 55.6989 131.432 55.931C132.093 55.7206 133.157 55.9146 133.737 55.991C134.158 56.4289 134.562 56.9021 135.126 57.202C135.763 57.55 136.524 57.6215 137.226 57.5425C138.198 57.407 139.187 57.3708 140.171 57.3074C140.514 57.2768 140.915 57.2228 141.092 56.9315L141.172 56.6233C141.188 56.0773 140.992 55.5401 140.876 55.0023C139.676 50.3203 138.373 45.6547 137.003 41.0011C135.676 36.5517 134.313 32.105 132.679 27.7199C132.082 26.156 131.475 24.5877 130.668 23.0871C130.425 22.6541 130.172 22.2181 129.828 21.8371C129.649 21.6475 129.43 21.4513 129.148 21.4162C128.937 21.3894 128.769 21.5119 128.606 21.6009C126.474 22.7757 124.304 23.9061 122.301 25.2478C121.582 25.7475 120.845 26.2556 120.323 26.9323C120.547 27.3987 120.11 26.4621 120.323 26.9323C119.672 27.1531 119.019 27.3711 118.366 27.5861C118.92 28.754 118.795 28.5258 119.348 29.6944C116.513 29.7644 113.663 29.7785 110.815 29.5294C109.838 29.43 108.848 29.3208 107.907 29.0102C107.305 28.7731 106.741 28.4623 106.165 28.1748C103.705 26.9008 101.273 25.5782 98.8408 24.2593C93.4731 21.3449 88.1296 18.3923 82.762 15.4779C81.463 14.7842 80.1815 14.0571 78.8265 13.4619C77.4054 12.8286 75.9181 12.2788 74.3661 12.0572C73.4884 11.94 72.5812 11.9205 71.7454 12.144C69.9717 12.587 68.2368 13.1265 66.4971 13.6511C62.1036 14.9987 57.7409 16.4142 53.394 17.8623C50.967 18.6729 48.5471 19.4978 46.1392 20.3465C43.9825 21.1145 41.823 21.8807 39.7243 22.7569C38.5202 23.2513 37.4425 23.9351 36.3505 24.5886C33.4288 26.3778 30.5768 28.2534 27.7501 30.1562C25.6923 31.5469 23.6515 32.958 21.6479 34.4097C20.6245 35.1538 19.6099 35.908 18.6262 36.6933C18.0517 37.1591 17.4749 37.6261 16.9681 38.1522C16.8209 38.3038 16.686 38.4675 16.592 38.6526L16.5567 38.7879C16.7624 39.497 17.2278 40.1472 17.772 40.7043C17.4593 41.39 17.1423 42.074 16.8296 42.7597C16.5618 43.3299 16.5679 44.0402 16.9529 44.6061C17.2939 45.1267 17.8845 45.4929 18.5058 45.6894ZM17.257 44.4546C16.9259 43.9632 16.9403 43.35 17.1762 42.8609C17.4826 42.2019 17.7806 41.539 18.0894 40.8813C19.1051 41.2127 20.1309 41.516 21.1715 41.7598C21.6377 41.8412 22.1099 41.8325 22.5742 41.805C23.6165 41.7296 24.6378 41.5462 25.6432 41.326C26.3654 41.1563 27.0995 41.0004 27.7692 40.7116C28.8796 40.2512 29.9725 39.7621 31.0674 39.2758C34.8455 37.5846 38.6108 35.8728 42.3612 34.1382C43.3276 34.7362 44.3323 35.2833 45.3684 35.7716C44.4158 36.182 43.4811 36.6218 42.5437 37.0569C38.5564 38.9203 34.5894 40.8144 30.5959 42.6679C28.7095 43.5356 26.8317 44.4196 24.9015 45.2149C24.5825 45.3305 24.2779 45.4944 23.9239 45.5251C22.8212 45.6488 21.7037 45.7153 20.5808 45.6738C19.94 45.6422 19.2925 45.5821 18.6688 45.4051C18.104 45.2446 17.5722 44.9164 17.257 44.4546ZM24.5421 45.7131C25.1002 45.5089 25.6416 45.2736 26.1843 45.0411C28.025 44.235 29.8442 43.3924 31.6598 42.546C35.5315 40.7436 39.3798 38.9049 43.2505 37.101C44.0933 36.7218 44.9189 36.3079 45.786 35.9724C46.7778 36.4059 47.7832 36.8259 48.833 37.1171C47.0221 38.0334 45.1963 38.9269 43.3773 39.8305C41.0651 40.9937 38.766 42.1764 36.4637 43.3535C34.7731 44.2319 33.0741 45.0987 31.4027 46.0042C31.2416 46.0799 31.06 46.1154 30.8886 46.1684C29.8351 46.4547 28.7727 46.7339 27.6689 46.8668C27.2944 46.9034 26.8976 46.9408 26.5291 46.802C25.8043 46.553 25.151 46.1486 24.5421 45.7131ZM31.8142 46.1767C32.2905 45.9043 32.7849 45.6556 33.2707 45.3958C36.3142 43.8029 39.3798 42.2419 42.4447 40.6806C44.7205 39.5333 47.0171 38.4169 49.2933 37.2703C50.0255 37.4289 50.7438 37.6744 51.4732 37.8571C50.3994 38.5336 49.3149 39.1967 48.2109 39.8346C47.2581 40.3722 46.3089 40.9273 45.2579 41.3149C43.7501 41.9699 42.284 42.692 40.8009 43.3867C38.7883 44.3303 36.7913 45.3023 34.7159 46.1431C34.2957 46.2933 33.8796 46.508 33.4024 46.4894C32.8625 46.4864 32.3245 46.3578 31.8142 46.1767ZM18.078 40.5349C17.5555 40.0391 17.1655 39.4382 16.9129 38.8057C17.1484 38.4136 17.5117 38.1046 17.8558 37.7918C19.0293 36.7689 20.295 35.834 21.5603 34.9031C23.5366 33.4609 25.5537 32.0632 27.5868 30.6844C30.5621 28.6741 33.5665 26.6968 36.6456 24.8101C37.6941 24.1867 38.7263 23.5301 39.8802 23.0575C41.8973 22.2127 43.9722 21.4742 46.0453 20.7352C48.5337 19.8542 51.0366 19.0025 53.5457 18.1636C58.0749 16.6542 62.6222 15.1815 67.2032 13.7833C68.7291 13.3248 70.254 12.8602 71.8077 12.4682C72.777 12.2002 73.84 12.2728 74.8509 12.4573C76.6023 12.8049 78.2528 13.5164 79.8414 14.2899C81.0917 14.93 82.32 15.6059 83.554 16.2726C88.6314 19.0373 93.692 21.8277 98.7721 24.5872C101.32 25.967 103.864 27.3546 106.448 28.6784C106.96 28.9264 107.46 29.2102 108.011 29.3777C109.065 29.6794 110.157 29.7905 111.24 29.8867C113.994 30.0946 116.748 30.0892 119.488 30.0099C123.431 38.5433 127.362 47.0811 131.289 55.6201C130.383 56.1197 129.446 56.5792 128.464 56.9593C126.184 57.852 123.798 58.5336 121.404 59.1801C120.099 59.5226 118.799 59.886 117.448 60.0959C113.284 60.7739 108.914 60.4677 104.704 59.6066C101.334 58.9112 98.0356 57.8685 94.8657 56.5573C92.1958 55.4614 89.6483 54.1049 87.2643 52.5424C84.3259 50.619 81.5121 48.5435 78.6746 46.4997C77.7676 45.8283 76.8005 45.2254 75.8035 44.6721C73.3326 43.3113 70.6849 42.2513 67.9961 41.3416C64.5554 40.196 61.0321 39.293 57.4717 38.6093C56.8095 38.3939 56.1328 38.2237 55.4577 38.0523C54.2771 37.7956 53.0628 37.5414 51.8641 37.6436C50.9812 37.4119 50.1076 37.1448 49.2274 36.9032C47.6764 36.4842 46.1986 35.8409 44.7751 35.1265C43.3502 34.394 41.9596 33.5816 40.7307 32.5906C40.1864 32.1371 39.6412 31.6407 39.3694 31.015C39.0975 30.4129 39.1302 29.7476 39.3376 29.1611C39.6446 28.3242 40.1951 27.5939 40.764 26.894C41.159 26.4168 41.7408 26.1039 42.323 25.8308C43.4285 25.3401 44.6382 25.0383 45.865 24.8363C46.8871 24.681 47.9338 24.5835 48.9869 24.6607C49.7879 24.7436 50.5748 24.9407 51.3668 25.0894C57.136 26.3313 62.8796 27.6949 68.6252 29.043C73.0619 30.0916 77.496 31.1507 81.9283 32.2135C81.9543 32.1089 81.979 32.0035 82.0052 31.8978C80.7203 31.6228 79.4496 31.2805 78.167 30.9913C75.7208 30.3984 73.2708 29.8222 70.8222 29.2387C65.0903 27.8847 59.358 26.5317 53.6096 25.2515C52.1828 24.9472 50.7594 24.6171 49.3213 24.3773C48.5611 24.2795 47.7965 24.3044 47.0448 24.3651C45.7533 24.4798 44.4832 24.7237 43.2766 25.1092C42.4786 25.3681 41.6997 25.6935 41.0397 26.1643C40.5766 26.4892 40.2678 26.9456 39.9379 27.3746C39.3854 28.1304 38.8866 28.9671 38.8195 29.9064C38.7589 30.6632 39.0857 31.4395 39.6499 32.0361C40.3355 32.761 41.1652 33.3695 42.0273 33.9161C39.1065 35.2781 36.1624 36.6056 33.2228 37.939C31.3594 38.7729 29.5032 39.6201 27.6139 40.4111C27.1148 40.6314 26.5716 40.7655 26.0316 40.8975C24.9524 41.1528 23.8552 41.3691 22.7327 41.4681C22.1373 41.5104 21.5203 41.5477 20.9285 41.3772C19.9678 41.1342 19.0128 40.8618 18.078 40.5349ZM134.921 56.6844C134.371 56.259 134 55.6747 133.404 55.2942C129.236 46.2564 125.082 37.2133 120.904 28.1786C120.963 28.0503 120.904 27.9104 120.753 27.8516C120.668 27.6772 120.591 27.4997 120.507 27.3249C120.676 27.0048 120.946 26.7437 121.221 26.4964C121.832 25.9626 122.522 25.5073 123.215 25.0612C125.039 23.9074 126.971 22.8918 128.876 21.843C128.971 21.7981 129.065 21.7007 129.192 21.7508C129.39 21.8333 129.526 21.9998 129.659 22.1505C130.047 22.6331 130.328 23.1724 130.604 23.7069C131.198 24.895 131.689 26.1175 132.162 27.3417C132.973 29.4609 133.695 31.6011 134.396 33.745C135.198 36.2242 135.96 38.711 136.695 41.2031C138.024 45.7278 139.295 50.2633 140.464 54.8149C140.582 55.3164 140.735 55.8153 140.804 56.3229C140.811 56.5006 140.859 56.7168 140.7 56.8458C140.503 56.9649 140.249 56.9702 140.016 56.9953C139.339 57.0394 138.658 57.0617 137.985 57.1311C137.408 57.1806 136.834 57.3045 136.244 57.2244C135.761 57.1718 135.296 56.9769 134.921 56.6844Z" fill="#20C85F"/>
<path d="M17.2568 44.4546C17.572 44.9164 18.1039 45.2446 18.6686 45.4051C19.2924 45.5821 19.9399 45.6422 20.5806 45.6738C21.7036 45.7153 22.821 45.6488 23.9237 45.5251C24.2778 45.4944 24.5824 45.3305 24.9014 45.2149C26.8315 44.4196 28.7094 43.5356 30.5958 42.6679C34.5892 40.8144 38.5562 38.9203 42.5435 37.0569C43.481 36.6218 44.4157 36.182 45.3682 35.7716C44.3321 35.2833 43.3275 34.7363 42.3611 34.1382C38.6107 35.8728 34.8454 37.5846 31.0672 39.2758C29.9723 39.7621 28.8794 40.2513 27.7691 40.7116C27.0993 41.0004 26.3652 41.1563 25.643 41.326C24.6377 41.5462 23.6164 41.7296 22.574 41.805C22.1097 41.8325 21.6375 41.8412 21.1713 41.7598C20.1307 41.516 19.105 41.2127 18.0892 40.8813C17.7804 41.539 17.4824 42.202 17.176 42.8609C16.9402 43.35 16.9258 43.9632 17.2568 44.4546Z" fill="white"/>
<path d="M24.5422 45.7131C25.1511 46.1486 25.8044 46.553 26.5292 46.802C26.8977 46.9408 27.2945 46.9035 27.669 46.8668C28.7727 46.7339 29.8352 46.4547 30.8887 46.1684C31.0601 46.1154 31.2417 46.0799 31.4028 46.0042C33.0742 45.0988 34.7732 44.232 36.4638 43.3535C38.7661 42.1764 41.0652 40.9938 43.3774 39.8305C45.1964 38.9269 47.0222 38.0334 48.8331 37.1171C47.7833 36.8259 46.7779 36.4059 45.7861 35.9724C44.919 36.308 44.0934 36.7219 43.2506 37.1011C39.3799 38.9049 35.5316 40.7436 31.6599 42.546C29.8443 43.3924 28.0251 44.235 26.1844 45.0411C25.6417 45.2737 25.1003 45.5089 24.5422 45.7131Z" fill="white"/>
<path d="M31.8143 46.1767C32.3246 46.3578 32.8627 46.4864 33.4025 46.4894C33.8797 46.508 34.2959 46.2933 34.7161 46.1431C36.7914 45.3022 38.7885 44.3303 40.801 43.3867C42.2842 42.692 43.7502 41.9699 45.258 41.3149C46.309 40.9273 47.2582 40.3722 48.211 39.8345C49.3151 39.1967 50.3995 38.5336 51.4733 37.8571C50.744 37.6744 50.0256 37.4289 49.2934 37.2703C47.0172 38.4169 44.7206 39.5333 42.4449 40.6806C39.3799 42.2419 36.3144 43.8029 33.2708 45.3958C32.785 45.6556 32.2906 45.9043 31.8143 46.1767Z" fill="white"/>
<path d="M18.078 40.5349C19.0127 40.8618 19.9678 41.1342 20.9284 41.3773C21.5202 41.5477 22.1372 41.5104 22.7327 41.4681C23.8552 41.3691 24.9524 41.1528 26.0315 40.8975C26.5715 40.7655 27.1148 40.6314 27.6139 40.4111C29.5032 39.6201 31.3593 38.773 33.2228 37.939C36.1624 36.6056 39.1065 35.2781 42.0272 33.9161C41.1652 33.3695 40.3355 32.761 39.6499 32.0361C39.0857 31.4395 38.7588 30.6632 38.8195 29.9064C38.8865 28.9671 39.3854 28.1304 39.9378 27.3746C40.2678 26.9456 40.5766 26.4892 41.0397 26.1643C41.6996 25.6935 42.4786 25.3681 43.2765 25.1092C44.4832 24.7238 45.7532 24.4798 47.0448 24.3651C47.7965 24.3044 48.561 24.2795 49.3212 24.3773C50.7594 24.6171 52.1828 24.9472 53.6095 25.2515C59.358 26.5318 65.0902 27.8847 70.8221 29.2388C73.2708 29.8223 75.7207 30.3984 78.167 30.9913C79.4495 31.2805 80.7203 31.6229 82.0052 31.8979C81.979 32.0035 81.9542 32.1089 81.9283 32.2135C77.4959 31.1507 73.0619 30.0916 68.6251 29.043C62.8796 27.6949 57.136 26.3313 51.3668 25.0895C50.5747 24.9407 49.7879 24.7437 48.9868 24.6607C47.9338 24.5836 46.887 24.681 45.8649 24.8363C44.6381 25.0383 43.4284 25.3401 42.323 25.8308C41.7408 26.1039 41.159 26.4168 40.764 26.894C40.1951 27.5939 39.6446 28.3242 39.3375 29.1612C39.1301 29.7477 39.0974 30.4129 39.3693 31.015C39.6412 31.6407 40.1864 32.1371 40.7307 32.5906C41.9596 33.5816 43.3502 34.394 44.775 35.1265C46.1986 35.8409 47.6763 36.4842 49.2273 36.9032C50.1076 37.1448 50.9812 37.412 51.864 37.6436C53.0628 37.5414 54.2771 37.7956 55.4577 38.0523C56.1327 38.2237 56.8094 38.3939 57.4716 38.6093C61.032 39.293 64.5554 40.1961 67.996 41.3416C70.6849 42.2513 73.3325 43.3113 75.8035 44.6721C76.8004 45.2254 77.7676 45.8283 78.6745 46.4997C81.5121 48.5435 84.3259 50.6191 87.2642 52.5424C89.6483 54.1049 92.1957 55.4614 94.8656 56.5574C98.0356 57.8685 101.334 58.9113 104.704 59.6066C108.914 60.4678 113.283 60.7739 117.448 60.0959C118.799 59.886 120.099 59.5227 121.404 59.1801C123.798 58.5336 126.184 57.8521 128.464 56.9593C129.446 56.5792 130.383 56.1197 131.288 55.6201C127.362 47.0811 123.431 38.5433 119.488 30.0099C116.748 30.0893 113.994 30.0946 111.24 29.8867C110.157 29.7905 109.064 29.6794 108.011 29.3777C107.46 29.2102 106.96 28.9265 106.448 28.6785C103.864 27.3546 101.32 25.967 98.7721 24.5872C93.692 21.8277 88.6314 19.0373 83.5539 16.2726C82.3199 15.6059 81.0917 14.93 79.8414 14.2899C78.2528 13.5164 76.6023 12.8049 74.8509 12.4573C73.8399 12.2728 72.7769 12.2002 71.8076 12.4682C70.2539 12.8602 68.7291 13.3248 67.2032 13.7833C62.6221 15.1815 58.0749 16.6542 53.5457 18.1636C51.0366 19.0025 48.5336 19.8542 46.0452 20.7353C43.9722 21.4742 41.8973 22.2127 39.8802 23.0575C38.7263 23.5301 37.694 24.1867 36.6456 24.8101C33.5665 26.6968 30.5621 28.6741 27.5868 30.6844C25.5537 32.0632 23.5365 33.4609 21.5603 34.9031C20.295 35.834 19.0293 36.7689 17.8558 37.7918C17.5117 38.1046 17.1484 38.4136 16.9129 38.8057C17.1654 39.4382 17.5555 40.0392 18.078 40.5349Z" fill="white"/>
</svg>
