<svg width="139" height="144" viewBox="0 0 139 144" fill="none" xmlns="http://www.w3.org/2000/svg">
<path d="M105.118 80C117.609 83 106.403 125 64.4588 125C56.9641 154 39.9762 144 52.1555 111C52.1555 67.0933 12.2102 58 54.1541 58C76.6381 58 79.636 80 105.118 80Z" fill="white"/>
<path d="M45.9674 92C48.7942 102.058 48.8568 107.177 48.5134 109.591C48.3327 110.862 47.2539 111.639 45.9922 111.874C21.8214 116.388 18.6111 114.124 4.49683 100C4.49683 81.4985 14.9939 63.5 27.9847 59C28.984 61 41.3442 75.5502 45.9674 92Z" fill="white"/>
<path d="M52.9785 112.573C65.4761 106.715 68.283 127.407 60.4769 138.79C58.6837 141.405 57.5045 143 57.5045 143C37.0046 147.5 0.39709 133.488 5.47852 107.073C5.47852 105.573 20.5776 127.761 52.9785 112.573Z" fill="white"/>
<path d="M5.5 107L18.5 122L23.5 137.5L22.2783 137.03C14.4501 134.019 6.97862 130.152 0 125.5C2.32788 119.847 4.10373 113.981 5.30278 107.986L5.5 107Z" fill="white"/>
<ellipse cx="66.9525" cy="81" rx="4.99645" ry="5" fill="#1CBB58"/>
<path d="M8.5057 50.6894L8.93498 50.8014C10.6697 51.1329 12.4328 51.0146 14.1433 50.827C14.8428 51.3411 15.5964 51.8208 16.4411 52.1058C16.9382 52.2806 17.4699 52.2216 17.9691 52.1583C19.1525 51.9835 20.2995 51.6849 21.4288 51.3556C22.1585 51.6609 22.9639 51.864 23.7514 51.7978C24.2171 51.721 24.6394 51.5293 25.0678 51.3658C28.3966 49.9753 31.5817 48.3507 34.8507 46.8617C35.4323 46.5908 36.0513 46.3829 36.6206 46.0921C38.4631 45.145 40.1993 44.0528 41.9423 42.976C42.3481 42.9043 42.7777 42.9478 43.1943 42.9796C44.6403 43.1297 46.0592 43.5083 47.45 43.9323C48.9039 44.2023 50.3493 44.5227 51.786 44.874C52.2817 45.036 52.8025 45.0991 53.2951 45.2703C56.5032 46.1148 59.6668 47.1585 62.6928 48.4924C64.1331 49.1319 65.5406 49.8433 66.8688 50.6678C67.7148 51.1829 68.4975 51.7756 69.2945 52.3495C71.9641 54.2708 74.6148 56.2179 77.3927 58.0099C79.8292 59.5832 82.4379 60.932 85.1632 62.0222C88.3805 63.3221 91.7262 64.3488 95.1402 65.0155C99.4834 65.8596 103.99 66.0993 108.247 65.2868C109.49 65.0504 110.694 64.7058 111.908 64.3878C114.297 63.7344 116.68 63.0443 118.946 62.1284C119.807 61.7811 120.628 61.3679 121.432 60.931C121.322 60.6989 121.542 61.1617 121.432 60.931C122.093 60.7206 123.157 60.9146 123.737 60.991C124.158 61.4289 124.562 61.9021 125.126 62.202C125.763 62.55 126.524 62.6215 127.226 62.5425C128.197 62.407 129.186 62.3708 130.17 62.3074C130.514 62.2768 130.915 62.2228 131.092 61.9315L131.172 61.6233C131.188 61.0773 130.992 60.5401 130.876 60.0023C129.676 55.3203 128.372 50.6547 127.003 46.0011C125.676 41.5517 124.313 37.105 122.679 32.7199C122.082 31.156 121.474 29.5877 120.668 28.0871C120.425 27.6541 120.172 27.2181 119.828 26.8371C119.649 26.6475 119.43 26.4513 119.148 26.4162C118.936 26.3894 118.768 26.5119 118.606 26.6009C116.474 27.7757 114.304 28.9061 112.301 30.2478C111.582 30.7475 110.845 31.2556 110.323 31.9323C110.109 31.4621 110.547 32.3987 110.323 31.9323C109.672 32.1531 109.019 32.3711 108.366 32.5861C108.92 33.754 108.795 33.5258 109.348 34.6944C106.513 34.7644 103.663 34.7785 100.815 34.5294C99.8376 34.43 98.8475 34.3208 97.9071 34.0102C97.3051 33.7731 96.7404 33.4623 96.165 33.1748C93.7045 31.9008 91.2734 30.5782 88.8406 29.2593C83.473 26.3449 78.1295 23.3923 72.7619 20.4779C71.4629 19.7842 70.1813 19.0571 68.8264 18.4619C67.4053 17.8286 65.918 17.2788 64.366 17.0572C63.4883 16.94 62.5811 16.9205 61.7453 17.144C59.9716 17.587 58.2367 18.1265 56.497 18.6511C52.1035 19.9987 47.7408 21.4142 43.3939 22.8623C40.9669 23.6729 38.547 24.4977 36.1391 25.3465C33.9824 26.1145 31.8229 26.8807 29.7242 27.7568C28.5201 28.2513 27.4424 28.9351 26.3504 29.5886C23.4287 31.3778 20.5767 33.2534 17.7499 35.1562C15.6922 36.5469 13.6514 37.958 11.6478 39.4097C10.6243 40.1538 9.60977 40.908 8.62613 41.6933C8.05161 42.1591 7.47478 42.6261 6.96803 43.1522C6.82078 43.3038 6.68587 43.4675 6.59186 43.6526L6.5566 43.7879C6.76225 44.497 7.22765 45.1472 7.77185 45.7043C7.45914 46.39 7.14216 47.074 6.82945 47.7597C6.56167 48.3299 6.56773 49.0402 6.95278 49.6061C7.29373 50.1267 7.88435 50.4929 8.5057 50.6894ZM7.25686 49.4546C6.92579 48.9632 6.9402 48.35 7.17607 47.8609C7.48247 47.2019 7.78049 46.539 8.08927 45.8813C9.10499 46.2127 10.1308 46.516 11.1713 46.7598C11.6376 46.8412 12.1098 46.8325 12.5741 46.805C13.6164 46.7296 14.6377 46.5462 15.643 46.326C16.3652 46.1563 17.0993 46.0004 17.7691 45.7116C18.8794 45.2512 19.9724 44.7621 21.0673 44.2758C24.8454 42.5846 28.6107 40.8728 32.3611 39.1382C33.3275 39.7362 34.3322 40.2833 35.3683 40.7716C34.4157 41.182 33.481 41.6218 32.5436 42.0569C28.5563 43.9203 24.5893 45.8144 20.5958 47.6679C18.7094 48.5356 16.8315 49.4196 14.9014 50.2149C14.5824 50.3305 14.2778 50.4944 13.9238 50.5251C12.8211 50.6488 11.7036 50.7153 10.5807 50.6738C9.93991 50.6422 9.29242 50.5821 8.66867 50.4051C8.10389 50.2446 7.57209 49.9164 7.25686 49.4546ZM14.5419 50.7131C15.1001 50.5089 15.6415 50.2736 16.1841 50.0411C18.0249 49.235 19.8441 48.3924 21.6597 47.546C25.5314 45.7436 29.3796 43.9049 33.2504 42.101C34.0932 41.7218 34.9188 41.3079 35.7859 40.9724C36.7777 41.4059 37.7831 41.8259 38.8329 42.1171C37.022 43.0334 35.1962 43.9269 33.3772 44.8305C31.065 45.9937 28.7659 47.1764 26.4636 48.3535C24.773 49.2319 23.074 50.0987 21.4026 51.0042C21.2415 51.0799 21.0599 51.1154 20.8885 51.1684C19.835 51.4547 18.7725 51.7339 17.6688 51.8668C17.2943 51.9034 16.8975 51.9408 16.529 51.802C15.8042 51.553 15.1509 51.1486 14.5419 50.7131ZM21.8141 51.1767C22.2904 50.9043 22.7848 50.6556 23.2706 50.3958C26.3141 48.8029 29.3797 47.2419 32.4446 45.6806C34.7203 44.5333 37.0169 43.4169 39.2932 42.2703C40.0254 42.4289 40.7437 42.6744 41.473 42.8571C40.3992 43.5336 39.3148 44.1967 38.2107 44.8346C37.258 45.3722 36.3088 45.9273 35.2578 46.3149C33.75 46.9699 32.2839 47.692 30.8008 48.3867C28.7882 49.3303 26.7911 50.3023 24.7158 51.1431C24.2956 51.2933 23.8795 51.508 23.4023 51.4894C22.8624 51.4864 22.3243 51.3578 21.8141 51.1767ZM8.07789 45.5349C7.55541 45.0391 7.16537 44.4382 6.91282 43.8057C7.14832 43.4136 7.51162 43.1046 7.85572 42.7918C9.02922 41.7689 10.2949 40.834 11.5602 39.9031C13.5364 38.4609 15.5536 37.0632 17.5867 35.6844C20.562 33.6741 23.5664 31.6968 26.6455 29.8101C27.6939 29.1867 28.7262 28.5301 29.8801 28.0575C31.8972 27.2127 33.9721 26.4742 36.0451 25.7352C38.5335 24.8542 41.0365 24.0025 43.5456 23.1636C48.0748 21.6542 52.6221 20.1815 57.2031 18.7833C58.729 18.3248 60.2538 17.8602 61.8075 17.4682C62.7769 17.2002 63.8398 17.2728 64.8508 17.4573C66.6022 17.8049 68.2527 18.5164 69.8413 19.2899C71.0916 19.93 72.3199 20.6059 73.5538 21.2726C78.6313 24.0373 83.6919 26.8277 88.772 29.5872C91.3202 30.967 93.8642 32.3546 96.4478 33.6784C96.9601 33.9264 97.4598 34.2102 98.0106 34.3777C99.0644 34.6794 100.157 34.7905 101.24 34.8867C103.994 35.0946 106.748 35.0892 109.488 35.0099C113.431 43.5433 117.362 52.0811 121.288 60.6201C120.383 61.1197 119.446 61.5792 118.464 61.9593C116.184 62.852 113.798 63.5336 111.404 64.1801C110.099 64.5226 108.799 64.886 107.448 65.0959C103.283 65.7739 98.9144 65.4677 94.7034 64.6066C91.3339 63.9112 88.0355 62.8685 84.8656 61.5573C82.1956 60.4614 79.6482 59.1049 77.2641 57.5424C74.3258 55.619 71.512 53.5435 68.6744 51.4997C67.7675 50.8283 66.8003 50.2254 65.8034 49.6721C63.3324 48.3113 60.6848 47.2513 57.9959 46.3416C54.5553 45.196 51.0319 44.293 47.4715 43.6093C46.8094 43.3939 46.1326 43.2237 45.4576 43.0523C44.277 42.7956 43.0627 42.5414 41.864 42.6436C40.9811 42.4119 40.1075 42.1448 39.2273 41.9032C37.6762 41.4842 36.1985 40.8409 34.775 40.1265C33.3501 39.394 31.9595 38.5816 30.7306 37.5906C30.1863 37.1371 29.6411 36.6407 29.3693 36.015C29.0973 35.4129 29.13 34.7476 29.3374 34.1611C29.6445 33.3242 30.195 32.5939 30.7639 31.894C31.1589 31.4168 31.7407 31.1039 32.3229 30.8308C33.4283 30.3401 34.6381 30.0383 35.8649 29.8363C36.887 29.681 37.9337 29.5835 38.9867 29.6607C39.7878 29.7436 40.5746 29.9407 41.3667 30.0894C47.1359 31.3313 52.8795 32.6949 58.6251 34.043C63.0618 35.0916 67.4958 36.1507 71.9282 37.2135C71.9541 37.1089 71.9789 37.0035 72.0051 36.8978C70.7202 36.6228 69.4495 36.2805 68.1669 35.9913C65.7207 35.3984 63.2707 34.8222 60.822 34.2387C55.0901 32.8847 49.3579 31.5317 43.6095 30.2515C42.1827 29.9472 40.7593 29.6171 39.3212 29.3773C38.561 29.2795 37.7964 29.3044 37.0447 29.3651C35.7531 29.4798 34.4831 29.7237 33.2764 30.1092C32.4785 30.3681 31.6996 30.6935 31.0396 31.1642C30.5765 31.4892 30.2677 31.9456 29.9378 32.3746C29.3853 33.1304 28.8865 33.9671 28.8194 34.9064C28.7588 35.6632 29.0856 36.4395 29.6498 37.0361C30.3354 37.761 31.1651 38.3695 32.0272 38.9161C29.1064 40.2781 26.1623 41.6056 23.2227 42.939C21.3592 43.7729 19.5031 44.6201 17.6138 45.4111C17.1147 45.6314 16.5715 45.7655 16.0314 45.8975C14.9523 46.1528 13.8551 46.3691 12.7326 46.4681C12.1372 46.5104 11.5202 46.5477 10.9284 46.3772C9.96771 46.1342 9.01267 45.8618 8.07789 45.5349ZM124.921 61.6844C124.371 61.259 123.999 60.6747 123.404 60.2942C119.236 51.2564 115.082 42.2133 110.904 33.1786C110.963 33.0503 110.903 32.9104 110.753 32.8516C110.668 32.6772 110.591 32.4997 110.507 32.3249C110.676 32.0048 110.946 31.7437 111.221 31.4964C111.832 30.9626 112.522 30.5073 113.215 30.0612C115.039 28.9074 116.971 27.8918 118.875 26.843C118.971 26.7981 119.065 26.7007 119.192 26.7508C119.39 26.8333 119.526 26.9998 119.659 27.1505C120.047 27.6331 120.328 28.1724 120.604 28.7069C121.198 29.895 121.689 31.1175 122.162 32.3417C122.973 34.4609 123.695 36.6011 124.396 38.745C125.197 41.2242 125.96 43.711 126.695 46.2031C128.024 50.7278 129.295 55.2633 130.464 59.8149C130.582 60.3164 130.735 60.8153 130.804 61.3229C130.811 61.5006 130.859 61.7168 130.7 61.8458C130.503 61.9649 130.249 61.9702 130.016 61.9953C129.339 62.0394 128.658 62.0617 127.985 62.1311C127.407 62.1806 126.834 62.3045 126.243 62.2244C125.761 62.1718 125.295 61.9769 124.921 61.6844Z" fill="#20C85F"/>
<path d="M7.25682 49.4546C7.57205 49.9164 8.10385 50.2446 8.66863 50.4051C9.29238 50.5821 9.93987 50.6422 10.5806 50.6738C11.7036 50.7153 12.821 50.6488 13.9237 50.5251C14.2778 50.4944 14.5824 50.3305 14.9014 50.2149C16.8315 49.4196 18.7094 48.5356 20.5958 47.6679C24.5892 45.8144 28.5562 43.9203 32.5435 42.0569C33.481 41.6218 34.4157 41.182 35.3682 40.7716C34.3321 40.2833 33.3275 39.7363 32.3611 39.1382C28.6107 40.8728 24.8454 42.5846 21.0672 44.2758C19.9723 44.7621 18.8794 45.2513 17.7691 45.7116C17.0993 46.0004 16.3652 46.1563 15.643 46.326C14.6377 46.5462 13.6164 46.7296 12.574 46.805C12.1097 46.8325 11.6375 46.8412 11.1713 46.7598C10.1307 46.516 9.10495 46.2127 8.08923 45.8813C7.78045 46.539 7.48244 47.202 7.17603 47.8609C6.94016 48.35 6.92575 48.9632 7.25682 49.4546Z" fill="white"/>
<path d="M14.5419 50.7131C15.1508 51.1486 15.8042 51.553 16.529 51.802C16.8974 51.9408 17.2943 51.9035 17.6687 51.8668C18.7725 51.7339 19.835 51.4547 20.8885 51.1684C21.0598 51.1154 21.2414 51.0799 21.4026 51.0042C23.0739 50.0988 24.773 49.232 26.4636 48.3535C28.7659 47.1764 31.065 45.9938 33.3771 44.8305C35.1962 43.9269 37.022 43.0334 38.8329 42.1171C37.7831 41.8259 36.7776 41.4059 35.7858 40.9724C34.9187 41.308 34.0932 41.7219 33.2504 42.1011C29.3796 43.9049 25.5314 45.7436 21.6597 47.546C19.8441 48.3924 18.0248 49.235 16.1841 50.0411C15.6414 50.2737 15.1001 50.5089 14.5419 50.7131Z" fill="white"/>
<path d="M21.8141 51.1767C22.3243 51.3578 22.8624 51.4864 23.4023 51.4894C23.8795 51.508 24.2956 51.2933 24.7158 51.1431C26.7911 50.3022 28.7882 49.3303 30.8008 48.3867C32.2839 47.692 33.75 46.9699 35.2578 46.3149C36.3088 45.9273 37.258 45.3722 38.2107 44.8345C39.3148 44.1967 40.3993 43.5336 41.473 42.8571C40.7437 42.6744 40.0254 42.4289 39.2932 42.2703C37.017 43.4169 34.7203 44.5333 32.4446 45.6806C29.3797 47.2419 26.3141 48.8029 23.2706 50.3958C22.7848 50.6556 22.2904 50.9043 21.8141 51.1767Z" fill="white"/>
<path d="M8.07785 45.5349C9.01262 45.8618 9.96766 46.1342 10.9283 46.3773C11.5201 46.5477 12.1371 46.5104 12.7325 46.4681C13.8551 46.3691 14.9523 46.1528 16.0314 45.8975C16.5714 45.7655 17.1147 45.6314 17.6137 45.4111C19.5031 44.6201 21.3592 43.773 23.2227 42.939C26.1623 41.6056 29.1063 40.2781 32.0271 38.9161C31.1651 38.3695 30.3354 37.761 29.6497 37.0361C29.0856 36.4395 28.7587 35.6632 28.8193 34.9064C28.8864 33.9671 29.3852 33.1304 29.9377 32.3746C30.2677 31.9456 30.5765 31.4892 31.0396 31.1643C31.6995 30.6935 32.4785 30.3681 33.2764 30.1092C34.483 29.7238 35.7531 29.4798 37.0447 29.3651C37.7964 29.3044 38.5609 29.2795 39.3211 29.3773C40.7593 29.6171 42.1827 29.9472 43.6094 30.2515C49.3579 31.5318 55.0901 32.8847 60.822 34.2388C63.2707 34.8223 65.7206 35.3984 68.1668 35.9913C69.4494 36.2805 70.7202 36.6229 72.0051 36.8979C71.9789 37.0035 71.9541 37.109 71.9282 37.2135C67.4958 36.1507 63.0618 35.0916 58.625 34.043C52.8795 32.6949 47.1359 31.3313 41.3666 30.0895C40.5746 29.9407 39.7878 29.7437 38.9867 29.6607C37.9336 29.5836 36.8869 29.681 35.8648 29.8363C34.638 30.0383 33.4283 30.3401 32.3228 30.8308C31.7407 31.1039 31.1589 31.4168 30.7638 31.894C30.195 32.5939 29.6444 33.3242 29.3374 34.1612C29.13 34.7477 29.0973 35.4129 29.3692 36.015C29.641 36.6407 30.1863 37.1371 30.7305 37.5906C31.9594 38.5816 33.35 39.394 34.7749 40.1265C36.1984 40.8409 37.6762 41.4842 39.2272 41.9032C40.1075 42.1448 40.9811 42.412 41.8639 42.6436C43.0627 42.5414 44.277 42.7956 45.4576 43.0523C46.1326 43.2237 46.8093 43.3939 47.4715 43.6093C51.0319 44.293 54.5553 45.1961 57.9959 46.3416C60.6848 47.2513 63.3324 48.3113 65.8034 49.6721C66.8003 50.2254 67.7675 50.8283 68.6744 51.4997C71.512 53.5435 74.3258 55.6191 77.2641 57.5424C79.6481 59.1049 82.1956 60.4614 84.8655 61.5574C88.0354 62.8685 91.3339 63.9113 94.7034 64.6066C98.9143 65.4678 103.283 65.7739 107.448 65.0959C108.798 64.886 110.099 64.5227 111.404 64.1801C113.798 63.5336 116.184 62.8521 118.464 61.9593C119.446 61.5792 120.383 61.1197 121.288 60.6201C117.362 52.0811 113.431 43.5433 109.488 35.0099C106.748 35.0893 103.994 35.0946 101.24 34.8867C100.157 34.7905 99.0644 34.6794 98.0106 34.3777C97.4597 34.2102 96.9601 33.9265 96.4478 33.6785C93.8642 32.3546 91.3201 30.967 88.772 29.5872C83.6918 26.8277 78.6312 24.0373 73.5538 21.2726C72.3198 20.6059 71.0916 19.93 69.8412 19.2899C68.2527 18.5164 66.6022 17.8049 64.8507 17.4573C63.8398 17.2728 62.7768 17.2002 61.8075 17.4682C60.2538 17.8602 58.729 18.3248 57.203 18.7833C52.622 20.1815 48.0748 21.6542 43.5455 23.1636C41.0365 24.0025 38.5335 24.8542 36.0451 25.7353C33.9721 26.4742 31.8972 27.2127 29.8801 28.0575C28.7261 28.5301 27.6939 29.1867 26.6454 29.8101C23.5663 31.6968 20.562 33.6741 17.5866 35.6844C15.5536 37.0632 13.5364 38.4609 11.5602 39.9031C10.2949 40.834 9.02918 41.7689 7.85568 42.7918C7.51158 43.1046 7.14828 43.4136 6.91278 43.8057C7.16532 44.4382 7.55537 45.0392 8.07785 45.5349Z" fill="white"/>
</svg>
