<svg width="239" height="67" viewBox="0 0 239 67" fill="none" xmlns="http://www.w3.org/2000/svg">
<path d="M2.65953 22.12C1.33953 22.12 0.0595315 21.04 0.0995315 19.48C0.259531 16.04 2.97953 13.8 5.33953 13.92C6.93953 13.96 8.73953 15.16 8.49953 16.92C8.13953 19.8 5.37953 22.2 2.65953 22.12ZM2.29953 19.16C2.29953 19.48 2.45953 19.92 3.01953 19.92C4.21953 20 6.13953 18.76 6.21953 17.16C6.25953 16.4 5.69953 16 5.17953 16C3.73953 15.96 2.29953 17.8 2.29953 19.16ZM11.0995 14.92C11.7795 14.84 14.1395 14.52 15.7395 14.2C15.7795 13.48 15.7795 12.76 15.8595 12C15.9395 10.76 18.0195 11.12 17.9795 12.24C17.7795 16.36 17.5395 20.48 17.3795 24.64C17.2995 27.04 14.9395 26.68 15.1395 24.92C15.2595 23.36 15.3395 21.92 15.4195 20.6C13.8195 20.76 12.6995 20.96 11.0195 21.16C9.93953 21.32 9.49953 19.48 10.8195 19.32C11.5795 19.24 13.8995 18.96 15.5395 18.6C15.5795 17.8 15.6195 17 15.6595 16.16C14.0995 16.36 12.9395 16.56 11.2595 16.76C10.2195 16.88 9.77953 15.08 11.0995 14.92ZM23.072 13.36C24.832 12.16 26.472 11.44 28.872 10.76C30.112 10.44 31.312 11.44 31.352 12.4C31.552 15.16 31.432 16.6 30.712 17.56C29.832 18.72 26.752 20.24 24.912 21.96C24.672 22.2 24.312 22.76 24.552 23.52C24.792 24.32 25.472 24.52 25.952 24.52C28.312 24.48 30.512 24 32.192 23.84C33.632 23.72 33.912 25.8 32.112 25.92C30.112 26.04 27.672 26.52 25.712 26.48C24.832 26.48 23.152 26.16 22.472 24.4C21.992 23.12 22.152 21.56 23.392 20.52C25.152 19 27.632 17.96 28.992 16.32C29.472 15.72 29.352 14.6 29.232 12.8C27.432 13.16 25.832 14.2 24.032 15.08C22.752 15.72 22.072 14.08 23.072 13.36ZM38.832 9.88C38.872 8.68 40.952 9.08 40.912 10.16C40.792 14.44 40.072 22.8 39.952 26.96C39.872 29.36 37.392 28.96 37.592 27.16C37.872 24.68 38.072 21.44 38.272 18.24C36.672 18.56 35.592 18.8 33.792 19.04C32.712 19.24 32.312 17.56 33.632 17.28C35.232 17 36.352 16.76 37.312 16.44C37.552 16.4 38.272 16.16 38.432 15.8C38.552 13.6 38.712 11.56 38.832 9.88ZM48.0445 5.44C48.0845 4.12 50.1645 3.96 50.1245 5.32C50.0445 6.84 50.0045 7.88 49.9645 8.84C51.1245 8.6 53.5245 8.2 55.1645 7.8C55.2445 6.72 55.3245 5.6 55.4445 4.4C55.5245 3.28 57.5645 2.96 57.4845 4.48C57.4045 7.36 57.0445 10.44 56.8445 13.28C56.7645 14.12 56.1245 14.88 55.4845 15.08C54.5645 15.4 51.8045 15.76 50.2845 16C49.2845 16.2 47.8445 15.44 47.8045 14.64C47.7645 11.96 47.8045 10.2 48.0445 5.44ZM49.8845 11.24C49.8445 12.04 49.8045 12.92 49.8045 14.08C51.5245 13.72 54.2445 13.32 54.8045 12.88C54.8845 11.84 54.9645 10.8 55.0445 9.8C53.2845 10 50.9645 10.56 49.8845 11.24ZM54.8845 20.48C54.7245 22.2 54.5645 23.56 54.4445 25.4C54.3645 27.04 52.6845 26.96 52.6045 25.8C52.4845 23.96 52.4445 22.56 52.4045 20.84L46.4045 21.92C45.1245 22.12 44.9645 20.04 46.0845 19.8C50.4845 19.04 55.0445 18.28 59.4845 17.88C61.0045 17.8 61.3645 19.72 59.8445 19.84C58.2045 20.04 56.5645 20.24 54.8845 20.48ZM48.3645 25C48.5245 24.16 49.2045 23.68 49.7645 23.84C50.2445 24 50.3645 24.68 50.3645 25.12C50.2445 27.04 50.0845 28.12 50.0845 29.92C52.5645 29.4 55.2045 28.96 57.8845 28.56C58.6045 28.48 59.4045 28.72 59.4045 29.52C59.4045 30.04 59.0845 30.44 58.0445 30.64C55.4445 31.12 52.5645 31.64 49.7245 32.04C48.6845 32.16 47.7645 31.32 47.8445 30.32C47.9645 28.4 48.0445 26.96 48.3645 25ZM67.0045 14.64C66.8445 13.84 66.6445 12.96 67.4045 12.32C68.7645 10.4 71.3245 9.28 72.8045 9.52C73.9245 9.68 74.8845 10.88 74.7645 12.04C74.5245 14.6 72.6045 17.84 70.1645 17.96C68.6445 18.04 66.8845 16.76 67.0045 14.64ZM69.2445 14.6C69.0845 15.4 69.6045 15.96 70.2445 15.84C71.2845 15.6 72.3245 13.96 72.4845 12.68C72.6045 12.08 72.2045 11.56 71.8045 11.64C70.4045 11.92 69.5245 13.56 69.2445 14.6ZM65.1245 23C69.4045 22.28 74.3245 21.92 78.7645 21.56C79.0445 17.36 79.2445 12.72 79.4845 9.68C79.6045 8.44 81.6045 8.84 81.5645 9.96C81.4445 14.2 80.7245 23 80.6045 27.2C80.5245 29.56 78.0445 29.16 78.2845 27.36C78.4045 26.24 78.5245 24.88 78.6045 23.48C74.4045 23.92 69.6045 24.24 65.3645 25.04C64.0845 25.28 64.0045 23.24 65.1245 23ZM106.387 8.24C107.347 6.6 109.027 7.88 108.227 9.24C107.787 10 107.387 10.76 106.947 11.48C108.907 13.24 110.907 14.64 113.147 16.24C114.267 17.04 113.227 18.52 112.107 17.92C110.267 16.92 107.827 15.08 105.787 13.36C104.627 15.28 103.387 17.12 102.107 19.12C101.067 20.72 99.587 19.52 100.307 18.32C102.547 14.56 104.307 11.6 106.387 8.24ZM100.307 26.84C101.827 26.56 103.547 26.32 105.347 26.16C105.427 24.08 105.507 21.68 105.667 19.68C105.747 18.48 107.467 18.04 107.507 19.68C107.547 21.56 107.587 23.64 107.667 26C109.987 25.84 112.267 25.76 114.187 25.76C115.747 25.8 115.587 27.92 113.987 27.92C109.827 27.92 104.427 28.28 100.507 28.72C98.947 28.92 99.067 27.04 100.307 26.84ZM128.187 9.92C130.227 11.16 131.667 11.96 133.547 13.12C134.587 13.76 133.787 15.52 132.427 14.8C130.227 13.56 128.467 12.4 126.667 11.64C125.307 13.12 123.907 14.56 122.587 15.72C121.507 16.68 120.107 15.36 121.227 14.2C124.467 11.08 126.467 8.84 128.227 6.88C126.667 7.12 124.107 7.44 122.307 7.84C120.467 8.24 120.347 6.04 121.907 5.84C124.627 5.56 129.787 4.56 130.227 4.8C130.907 5.12 131.587 6.04 131.187 6.48C130.227 7.56 129.227 8.72 128.187 9.92ZM120.467 18.44C124.507 17.56 131.107 16.8 135.027 16.64C136.587 16.6 136.547 18.6 134.987 18.72C133.227 18.8 131.147 19 129.027 19.2C128.907 20.6 128.747 21.8 128.667 23.24C130.187 23.56 131.347 24.64 131.227 26.2C130.907 28.96 127.427 31.72 124.947 31.56C123.627 31.48 122.307 30.6 122.387 29.04C122.467 26.2 124.707 24 126.747 23.36C126.707 22 126.667 20.84 126.587 19.48C124.427 19.76 122.347 20.04 120.707 20.32C119.187 20.6 119.267 18.72 120.467 18.44ZM124.507 28.68C124.507 29.04 124.667 29.56 125.227 29.56C126.507 29.6 128.907 27.92 129.027 26.24C129.067 25.44 128.427 25 127.827 25C126.387 24.96 124.467 27.28 124.507 28.68ZM141.547 10.36C141.187 8.28 140.827 6.48 140.307 4.08C140.027 2.92 141.947 2.04 142.227 3.28C142.747 5.56 143.307 7.8 143.827 9.92C144.867 9.72 145.947 9.44 147.147 9.12C148.467 8.76 148.947 9.16 149.027 9.84C149.107 10.28 148.947 11.08 147.387 11.28C143.627 11.92 139.867 12.64 137.387 13.08C135.827 13.28 135.707 11.16 137.227 11C138.907 10.8 140.267 10.56 141.547 10.36ZM143.427 14.08C144.907 14.12 146.747 15.16 146.467 17.48C146.227 19.88 143.467 22.64 140.987 22.56C139.227 22.52 138.507 21.32 138.507 20.12C138.547 17.6 140.587 14 143.427 14.08ZM143.267 16.2C142.067 16.2 140.827 18.28 140.787 19.48C140.787 20.12 141.227 20.32 141.627 20.32C142.787 20.32 144.307 18.84 144.427 17.28C144.467 16.6 143.907 16.2 143.267 16.2ZM153.067 6.96C153.147 5.72 155.227 6.08 155.227 7.16C155.187 9.68 154.987 12.72 154.827 15.64C156.427 14.88 158.227 14.04 160.107 13.64C160.627 13.56 161.187 13.72 161.187 14.24C161.187 14.84 160.867 15.44 159.907 15.76C158.107 16.32 157.107 16.72 155.587 17.48C155.147 17.68 154.787 18.08 154.667 18.68C154.627 19.64 154.587 20.56 154.587 21.44C154.547 23.8 152.067 23.44 152.227 21.68C152.667 16.84 152.827 11.56 153.067 6.96ZM146.627 23.16C146.787 21.6 148.627 21.88 148.547 23.32C148.467 24.96 148.387 26.52 148.387 27.76C150.867 27.36 153.467 26.76 156.147 26.48C156.907 26.4 157.347 26.92 157.347 27.48C157.347 28.04 156.987 28.4 155.907 28.56C153.347 29.04 150.867 29.48 148.067 29.88C146.947 30.04 146.067 29.16 146.107 28.16C146.107 26.48 146.387 24.84 146.627 23.16ZM183.703 7.96C183.383 6.04 183.023 4.4 182.583 2.16C182.303 0.959999 184.263 0.119998 184.543 1.4C185.023 3.56 185.543 5.56 186.063 7.68C187.103 7.52 188.143 7.32 189.383 7C190.703 6.68 191.183 7.12 191.263 7.8C191.263 8.28 191.143 9 189.503 9.2C185.703 9.64 182.023 10.12 179.503 10.4C177.903 10.52 177.823 8.48 179.383 8.36C181.103 8.2 182.463 8.08 183.703 7.96ZM186.303 11.2C188.103 11.2 189.343 12.36 189.183 14.36C188.943 16.8 186.423 19.12 183.623 19.32C181.863 19.44 180.543 18.44 180.583 16.92C180.623 14.16 183.383 11.2 186.303 11.2ZM185.543 13.36C184.263 13.64 182.863 15.08 182.823 16.32C182.823 17.28 183.623 17.36 184.263 17.24C185.543 17 186.823 15.84 187.023 14.24C187.063 13.72 186.583 13.16 185.543 13.36ZM177.623 22.44C181.783 21.68 188.423 21.32 192.383 21.36C193.943 21.4 193.783 23.36 192.183 23.36C190.503 23.36 188.543 23.44 186.503 23.56H186.543C186.303 23.8 186.183 24.28 186.183 24.64C186.103 26.64 185.983 28.36 185.823 30.64C185.743 31.88 183.783 32.16 183.743 30.68C183.743 28.4 183.943 25.8 183.863 23.72C181.663 23.92 179.503 24.12 177.783 24.28C176.223 24.48 176.423 22.64 177.623 22.44ZM196.874 16.92C196.674 15.92 197.634 15.36 198.234 15.28C200.994 14.64 204.874 13.76 205.354 13.84C206.154 14 206.554 14.56 206.554 15.12C206.194 18.44 205.714 21.68 205.194 24.32C205.034 24.88 204.594 25.4 203.914 25.52C203.194 25.64 202.954 25.04 202.994 24.56C203.714 21.16 203.874 19.04 204.314 16.04C202.714 16.36 200.874 16.76 199.234 17.12C198.394 17.28 196.994 17.64 196.874 16.92ZM211.114 11.12C211.194 9.88 213.234 10.24 213.234 11.36C213.194 15.68 212.714 21.36 212.674 25.52C212.634 27.92 210.274 27.56 210.434 25.8C210.754 20.8 210.914 15.76 211.114 11.12ZM217.215 16.92C217.015 15.92 217.975 15.36 218.575 15.28C221.335 14.64 224.775 13.76 225.255 13.84C226.055 14 226.455 14.56 226.455 15.12C226.095 18.44 225.615 21.68 225.095 24.32C224.935 24.88 224.495 25.4 223.815 25.52C223.095 25.64 222.815 25.04 222.895 24.56C223.575 21.16 223.855 19.16 224.215 16.04C222.615 16.36 221.215 16.76 219.575 17.12C218.735 17.28 217.335 17.64 217.215 16.92ZM230.775 9.88C230.815 8.68 232.855 9.08 232.815 10.16C232.735 12.4 232.535 15.68 232.295 18.92C232.535 18.72 232.775 18.56 233.015 18.52C234.375 18.16 235.615 18.04 237.455 17.96C238.015 17.92 238.535 18.32 238.455 18.76C238.415 19.4 238.215 19.84 237.255 20C235.855 20.2 234.295 20.28 233.215 20.6C232.775 20.76 232.335 20.92 232.135 21.44C231.975 23.56 231.895 25.52 231.855 26.96C231.775 29.36 229.295 28.96 229.535 27.16C230.055 22.32 230.415 14.52 230.775 9.88ZM64.0641 41.44C67.0241 41.08 70.7441 40.64 72.4241 40.2C74.8241 39.56 75.7841 39.72 75.8641 40.84C75.8641 41.48 75.3841 42.16 74.4641 42.2C74.3441 42.2 74.2241 42.2 74.1441 42.24C73.7441 44.6 73.6641 46.96 73.5441 49.32C74.1441 49.24 74.7841 49.16 75.4241 49.08C76.9841 48.92 77.3441 50.84 75.7041 51.12C72.3441 51.64 69.1441 52.16 65.8641 52.64C63.8241 52.92 63.9441 50.84 65.3841 50.6C65.9841 50.52 66.5841 50.4 67.1841 50.32C67.0241 48.08 66.9841 45.12 67.1041 43.04C66.3441 43.2 65.5841 43.32 64.7441 43.4C63.1041 43.64 62.9441 41.56 64.0641 41.44ZM72.0641 42.4C71.0641 42.52 70.1441 42.64 69.1841 42.76C69.1441 45.04 69.1441 48.28 69.3841 49.96C70.0641 49.84 70.7841 49.76 71.5041 49.64C71.5041 47.4 71.5441 44.8 72.0641 42.4ZM80.3841 40.12C80.4241 38.88 82.5441 39.24 82.5041 40.32C82.4641 44.64 82.1441 48.72 81.9041 52.88C81.9041 53.16 81.8241 53.4 81.7441 53.56C82.2641 53.92 82.6641 54.48 82.6241 54.92C82.4241 56.56 81.7441 58.96 81.1441 59.48C79.4241 60.8 76.4641 61.68 75.3041 62.44C74.9441 62.64 74.7041 63.24 74.8641 63.8C74.9841 64.24 75.4241 64.44 75.9441 64.36C77.6641 64.12 78.6241 63.84 79.9841 63.36C80.7841 63.08 81.7041 62.4 82.3841 62.28C82.8641 62.2 83.4641 62.52 83.6641 63C83.7841 63.56 83.9041 64.44 82.1841 64.8C79.8241 65.48 78.3041 66.16 76.0241 66.4C74.0241 66.56 72.7441 65.44 72.5041 64C72.3041 62.8 72.7441 61.48 73.6241 61C75.5441 59.84 77.6641 59.24 79.6241 58C80.0641 57.08 80.2241 56.24 80.4241 55.28C78.0241 55.44 76.4641 56 74.0641 56.68C73.2641 56.92 71.7841 57.08 71.6241 56.24C71.5041 55.48 72.3441 54.92 73.1041 54.72C75.2241 54 77.8241 53.48 79.5441 53.28V53C79.9841 48.16 80.1441 44.72 80.3841 40.12ZM94.1166 54.8H93.9166C94.1166 56.48 94.2766 58.12 94.5166 59.76C95.3966 59.68 96.3166 59.56 97.2366 59.44C97.4366 57.8 97.5966 56.36 97.8766 54.8C98.1166 53.64 99.9166 53.36 99.7566 54.92C99.6366 56.44 99.5166 57.76 99.4366 59.16C100.997 59 102.437 58.88 103.797 58.76C105.277 58.68 105.597 60.32 104.117 60.52C99.7966 61.2 93.6766 62.08 89.1166 62.84C87.7966 63.08 87.7566 60.8 88.8766 60.6C89.9566 60.44 91.1166 60.28 92.3566 60.08C92.3166 58.32 92.1166 56.64 92.1166 54.76C92.1166 54.6 92.1166 54.48 92.1566 54.36C91.1566 53.8 90.7566 52.76 90.7966 51.72C90.8766 48.12 94.1166 44.92 97.1166 45.28C98.4766 45.48 99.8766 46.12 99.7566 48.4C99.5566 51.2 97.0366 54.72 94.1166 54.8ZM93.5566 52.64C94.8766 53.16 97.1966 50.96 97.6766 48.24C97.7966 47.52 97.2766 47.2 96.7566 47.2C95.1566 47.28 94.8366 48.84 94.1566 49.8C93.7566 50.28 93.2366 50.44 93.0366 51.12C92.7566 51.84 93.0366 52.4 93.5566 52.64ZM110.357 44.48C109.997 42.36 109.597 40.6 109.117 38.2C108.837 37.04 110.717 36.16 111.037 37.4C111.557 39.72 112.117 41.92 112.677 44.08C113.917 43.84 115.117 43.6 116.397 43.24C117.717 42.88 118.197 43.28 118.277 43.96C118.357 44.4 118.197 45.2 116.637 45.4C112.837 46.04 108.237 46.76 105.757 47.2C104.197 47.4 104.077 45.28 105.597 45.12C107.317 44.88 108.877 44.68 110.357 44.48ZM113.477 48.16C114.957 48.2 116.117 48.96 115.917 51.24C115.637 54.04 112.117 57 109.677 56.68C108.557 56.56 107.797 55.68 107.797 54.48C107.837 52 110.597 48.08 113.477 48.16ZM112.917 50.36C111.717 50.6 110.037 52.68 110.037 53.88C110.037 54.16 110.037 54.44 110.437 54.44C111.597 54.44 113.557 52.32 113.717 51.12C113.797 50.4 113.317 50.28 112.917 50.36ZM123.157 40.64C123.237 39.4 125.357 39.76 125.317 40.84C125.277 43.04 125.157 45.32 125.037 47.6C127.117 47.2 129.917 46.76 132.157 46.24C132.477 46.16 133.237 46.44 133.237 46.96C133.197 47.68 132.917 48.04 131.917 48.32C130.077 48.92 127.557 49.36 125.677 49.88C125.277 50 124.957 50.32 124.837 50.76C124.757 51.88 124.717 52.96 124.717 54C124.677 56.4 122.197 56.04 122.357 54.28C122.797 49.44 122.957 45.24 123.157 40.64ZM117.477 55.8C117.517 54.48 119.397 54.4 119.437 55.72C119.437 56.88 119.397 58.16 119.357 59.68C121.157 59.52 123.557 58.48 125.197 58.08C125.277 57.04 125.357 55.96 125.397 54.68C125.397 53.56 127.517 53.28 127.437 54.72C127.317 57.6 127.117 60.2 126.837 63.4C126.757 64.24 126.117 64.96 125.517 65.2C123.877 65.72 121.117 66.64 119.637 66.88C118.397 67 117.197 66.28 117.197 65.56C117.277 61.96 117.357 58.76 117.477 55.8ZM119.317 61.92C119.277 62.8 119.237 63.76 119.237 64.8C121.037 64.4 123.637 63.84 124.757 62.96C124.837 62.16 124.877 61.44 124.957 60.72C124.837 60.52 124.517 60.4 124.197 60.48C122.957 60.68 120.797 61.36 119.317 61.92ZM137.054 48.16C137.174 47.32 137.894 46.84 138.454 47C138.934 47.16 139.054 47.84 139.054 48.28C138.934 50.16 138.774 54.84 138.774 56.64C141.134 56.24 145.454 55.44 149.094 54.92C149.214 51.92 149.334 48.92 149.454 46.12C149.534 44.88 151.574 45.24 151.574 46.36C151.534 50.68 151.054 56.36 151.014 60.52C150.974 62.92 148.614 62.56 148.774 60.8C148.854 59.52 148.934 58.24 148.974 56.96C145.014 57.52 140.894 58.32 138.414 58.76C137.374 58.96 136.454 58.08 136.534 57.04C136.614 55.12 136.694 50.12 137.054 48.16ZM163.435 46.2C165.035 45.92 165.195 47.68 164.075 48.12C162.395 48.72 160.635 49.08 158.955 49.4C158.955 51.8 159.035 54.32 159.235 56.84C161.995 56.28 165.755 55.84 168.395 55.56C168.675 51.76 168.875 47.72 169.115 44.88C169.155 43.68 171.195 44.08 171.155 45.16C171.075 47.4 170.875 50.68 170.635 53.92C170.875 53.72 171.115 53.56 171.355 53.52C172.715 53.16 173.955 53.04 175.795 52.96C176.355 52.92 176.875 53.32 176.795 53.76C176.755 54.4 176.555 54.84 175.595 55C174.195 55.2 172.635 55.28 171.555 55.6C171.115 55.76 170.675 55.92 170.475 56.44C170.315 58.56 170.235 60.52 170.195 61.96C170.115 64.36 167.635 63.96 167.875 62.16C167.995 60.8 168.155 59.24 168.275 57.56C165.595 57.88 162.275 58.24 159.675 58.88C158.115 59.28 157.075 58.6 156.955 57.2C156.755 54.56 156.635 52.2 156.675 49.36C156.675 48.28 157.115 47.68 158.515 47.4C161.195 46.92 162.355 46.4 163.435 46.2ZM180.269 43.2C180.229 42.16 182.029 41.76 182.189 43.2C182.709 48.16 182.749 51.2 182.869 56.12C182.909 57.64 180.749 58.4 180.549 56.12C180.549 55.44 180.869 54.72 180.749 54.16C180.589 49.56 180.549 48.04 180.269 43.2ZM181.549 60.8C182.389 60.68 183.269 61.32 183.509 62.48C183.669 63.4 182.789 64.52 181.829 64.64C180.949 64.8 180.229 63.8 180.109 62.6C180.069 61.84 180.749 60.92 181.549 60.8Z" fill="white"/>
</svg>
