<svg width="201" height="57" viewBox="0 0 201 57" fill="none" xmlns="http://www.w3.org/2000/svg">
<path d="M19.9994 20.12C18.6794 20.12 17.3994 19.04 17.4394 17.48C17.5994 14.04 20.3194 11.8 22.6794 11.92C24.2794 11.96 26.0794 13.16 25.8394 14.92C25.4794 17.8 22.7194 20.2 19.9994 20.12ZM19.6394 17.16C19.6394 17.48 19.7994 17.92 20.3594 17.92C21.5594 18 23.4794 16.76 23.5594 15.16C23.5994 14.4 23.0394 14 22.5194 14C21.0794 13.96 19.6394 15.8 19.6394 17.16ZM28.4394 12.92C29.1194 12.84 31.4794 12.52 33.0794 12.2C33.1194 11.48 33.1194 10.76 33.1994 10C33.2794 8.76 35.3594 9.12 35.3194 10.24C35.1194 14.36 34.8794 18.48 34.7194 22.64C34.6394 25.04 32.2794 24.68 32.4794 22.92C32.5994 21.36 32.6794 19.92 32.7594 18.6C31.1594 18.76 30.0394 18.96 28.3594 19.16C27.2794 19.32 26.8394 17.48 28.1594 17.32C28.9194 17.24 31.2394 16.96 32.8794 16.6C32.9194 15.8 32.9594 15 32.9994 14.16C31.4394 14.36 30.2794 14.56 28.5994 14.76C27.5594 14.88 27.1194 13.08 28.4394 12.92ZM40.4119 11.36C42.1719 10.16 43.8119 9.44 46.2119 8.76C47.4519 8.44 48.6519 9.44 48.6919 10.4C48.8919 13.16 48.7719 14.6 48.0519 15.56C47.1719 16.72 44.0919 18.24 42.2519 19.96C42.0119 20.2 41.6519 20.76 41.8919 21.52C42.1319 22.32 42.8119 22.52 43.2919 22.52C45.6519 22.48 47.8519 22 49.5319 21.84C50.9719 21.72 51.2519 23.8 49.4519 23.92C47.4519 24.04 45.0119 24.52 43.0519 24.48C42.1719 24.48 40.4919 24.16 39.8119 22.4C39.3319 21.12 39.4919 19.56 40.7319 18.52C42.4919 17 44.9719 15.96 46.3319 14.32C46.8119 13.72 46.6919 12.6 46.5719 10.8C44.7719 11.16 43.1719 12.2 41.3719 13.08C40.0919 13.72 39.4119 12.08 40.4119 11.36ZM56.1719 7.88C56.2119 6.68 58.2919 7.08 58.2519 8.16C58.1319 12.44 57.4119 20.8 57.2919 24.96C57.2119 27.36 54.7319 26.96 54.9319 25.16C55.2119 22.68 55.4119 19.44 55.6119 16.24C54.0119 16.56 52.9319 16.8 51.1319 17.04C50.0519 17.24 49.6519 15.56 50.9719 15.28C52.5719 15 53.6919 14.76 54.6519 14.44C54.8919 14.4 55.6119 14.16 55.7719 13.8C55.8919 11.6 56.0519 9.56 56.1719 7.88ZM65.3844 3.44C65.4244 2.12 67.5044 1.96 67.4644 3.32C67.3844 4.84 67.3444 5.88 67.3044 6.84C68.4644 6.6 70.8644 6.2 72.5044 5.8C72.5844 4.72 72.6644 3.6 72.7844 2.4C72.8644 1.28 74.9044 0.96 74.8244 2.48C74.7444 5.36 74.3844 8.44 74.1844 11.28C74.1044 12.12 73.4644 12.88 72.8244 13.08C71.9044 13.4 69.1444 13.76 67.6244 14C66.6244 14.2 65.1844 13.44 65.1444 12.64C65.1044 9.96 65.1444 8.2 65.3844 3.44ZM67.2244 9.24C67.1844 10.04 67.1444 10.92 67.1444 12.08C68.8644 11.72 71.5844 11.32 72.1444 10.88C72.2244 9.84 72.3044 8.8 72.3844 7.8C70.6244 8 68.3044 8.56 67.2244 9.24ZM72.2244 18.48C72.0644 20.2 71.9044 21.56 71.7844 23.4C71.7044 25.04 70.0244 24.96 69.9444 23.8C69.8244 21.96 69.7844 20.56 69.7444 18.84L63.7444 19.92C62.4644 20.12 62.3044 18.04 63.4244 17.8C67.8244 17.04 72.3844 16.28 76.8244 15.88C78.3444 15.8 78.7044 17.72 77.1844 17.84C75.5444 18.04 73.9044 18.24 72.2244 18.48ZM65.7044 23C65.8644 22.16 66.5444 21.68 67.1044 21.84C67.5844 22 67.7044 22.68 67.7044 23.12C67.5844 25.04 67.4244 26.12 67.4244 27.92C69.9044 27.4 72.5444 26.96 75.2244 26.56C75.9444 26.48 76.7444 26.72 76.7444 27.52C76.7444 28.04 76.4244 28.44 75.3844 28.64C72.7844 29.12 69.9044 29.64 67.0644 30.04C66.0244 30.16 65.1044 29.32 65.1844 28.32C65.3044 26.4 65.3844 24.96 65.7044 23ZM84.3444 12.64C84.1844 11.84 83.9844 10.96 84.7444 10.32C86.1044 8.4 88.6644 7.28 90.1444 7.52C91.2644 7.68 92.2244 8.88 92.1044 10.04C91.8644 12.6 89.9444 15.84 87.5044 15.96C85.9844 16.04 84.2244 14.76 84.3444 12.64ZM86.5844 12.6C86.4244 13.4 86.9444 13.96 87.5844 13.84C88.6244 13.6 89.6644 11.96 89.8244 10.68C89.9444 10.08 89.5444 9.56 89.1444 9.64C87.7444 9.92 86.8644 11.56 86.5844 12.6ZM82.4644 21C86.7444 20.28 91.6644 19.92 96.1044 19.56C96.3844 15.36 96.5844 10.72 96.8244 7.68C96.9444 6.44 98.9444 6.84 98.9044 7.96C98.7844 12.2 98.0644 21 97.9444 25.2C97.8644 27.56 95.3844 27.16 95.6244 25.36C95.7444 24.24 95.8644 22.88 95.9444 21.48C91.7444 21.92 86.9444 22.24 82.7044 23.04C81.4244 23.28 81.3444 21.24 82.4644 21ZM122.367 5.4C123.327 3.72 125.047 5.04 124.247 6.4C123.607 7.6 122.847 8.84 122.127 10.08C123.647 12.56 124.887 14.2 126.487 16.6C127.207 17.76 125.567 18.8 124.767 17.84C123.567 16.12 122.287 14.12 120.887 12.12C119.847 13.76 118.807 15.4 117.847 16.92C117.087 18.16 115.047 17.04 115.887 15.8C118.367 11.96 120.447 8.84 122.367 5.4ZM131.607 4.96C131.687 3.72 133.767 4.08 133.767 5.16C133.687 9.48 133.207 15.28 133.087 19.44C133.047 21.8 130.607 21.44 130.767 19.68C130.967 17.2 131.127 14.6 131.247 12.04C130.007 12.2 128.607 12.48 126.727 12.64C125.647 12.84 125.407 11.12 126.687 10.76C128.367 10.4 130.087 10.2 131.327 9.88C131.407 8.2 131.487 6.56 131.607 4.96ZM124.207 21.16C124.407 19.6 126.247 19.88 126.167 21.32C126.047 22.96 125.967 24.52 125.967 25.76C128.487 25.36 131.047 24.76 133.727 24.48C134.447 24.4 134.967 24.92 134.967 25.48C134.967 26.04 134.607 26.4 133.487 26.56C130.927 27.04 128.487 27.48 125.647 27.88C124.567 28.04 123.687 27.16 123.727 26.16C123.727 24.48 124.007 22.84 124.207 21.16ZM147.299 5.56C148.899 5.24 149.059 7 147.939 7.44C146.259 8.08 143.539 8.56 141.819 8.88C141.819 9.76 141.819 10.68 141.859 11.6C144.419 11.12 147.099 10.48 148.139 10.24C149.739 9.84 149.899 11.68 148.779 12.12C147.139 12.72 143.739 13.32 141.939 13.64C141.979 14.56 142.059 15.44 142.139 16.32C144.899 15.8 150.419 14.84 153.219 14.48C153.579 10.96 153.659 8.28 153.899 4.52C154.019 3.28 156.059 3.68 155.939 4.76C155.899 6.56 155.819 8.24 155.739 9.92L155.779 9.8C155.899 10.24 156.499 10.28 156.779 10.2C157.939 9.92 158.619 9.8 159.539 9.6C159.659 7.48 159.779 5.48 159.899 3.72C160.059 2.48 162.099 2.84 162.059 3.92C161.899 8.2 161.699 13.32 161.419 17.44C161.299 19.4 159.019 19.32 159.139 17.72C159.219 15.72 159.299 13.68 159.419 11.64C158.419 11.8 157.099 12.12 155.579 12.8C155.499 14.24 155.419 15.72 155.339 17.2C155.219 19.16 152.659 19.24 152.939 17C152.939 16.84 152.979 16.64 152.979 16.48C150.219 16.8 145.259 17.72 142.659 18.36C141.099 18.76 140.019 18.08 139.939 16.68C139.779 14.12 139.779 11.72 139.659 8.84C139.619 7.76 140.099 7.16 141.499 6.88C144.179 6.4 146.219 5.76 147.299 5.56ZM148.539 22.72C148.259 22.12 148.659 21.56 149.859 21.24C152.139 20.68 156.979 19.88 157.979 20.08C158.979 20.32 159.899 21.36 159.819 22.04C159.579 23.96 159.339 25.72 159.099 27.56C159.019 28.04 158.579 28.56 157.899 28.48C157.499 28.44 156.939 28.12 157.019 27.44L157.499 22.16C155.939 22.32 152.299 22.88 150.179 23.28C149.499 23.4 148.739 23.28 148.539 22.72ZM167.967 8.24C170.807 7.56 172.967 7.2 175.887 6.8C176.527 6.72 177.807 6.96 177.727 8.2C177.407 11.6 177.087 14.28 176.767 16.96C176.607 18.64 174.727 18.56 174.767 17.16C175.007 13.68 175.367 11.52 175.487 8.92C172.967 9.16 170.327 9.8 167.847 10.16C166.087 10.36 165.927 8.72 167.967 8.24ZM166.527 21.44C167.527 21.28 168.567 21.12 169.607 21C169.767 19.04 170.047 16.04 170.247 14.2C170.447 13 172.047 12.6 172.047 14.24C172.047 16 171.967 18.76 171.967 20.72C174.727 20.44 177.527 20.24 180.127 20C180.407 15.68 180.647 10.84 180.887 7.68C181.007 6.44 183.007 6.84 182.967 7.96C182.887 10.2 182.647 13.72 182.447 17.16C182.687 16.96 182.927 16.84 183.127 16.76C184.527 16.4 185.727 16.28 187.607 16.16C188.167 16.12 188.687 16.52 188.607 16.96C188.527 17.64 188.087 18.08 187.167 18.2C185.727 18.44 184.407 18.52 183.367 18.8C182.927 19 182.487 19.08 182.287 19.56C182.127 21.76 182.047 23.76 182.007 25.2C181.927 27.56 179.447 27.16 179.687 25.36C179.807 24.36 179.887 23.16 179.967 21.92C175.767 22.36 171.007 22.64 166.767 23.48C165.487 23.72 165.367 21.68 166.527 21.44ZM2.14453 34.8C2.02453 33.8 2.90453 33.28 3.50453 33.2C6.26453 32.56 11.5045 31.64 11.9845 31.72C12.7845 31.88 13.1445 32.44 13.1445 33C12.8245 36.36 12.5845 38.16 12.0245 41.36C11.9445 41.88 11.5045 42.36 10.8245 42.48C10.0645 42.56 9.82453 42 9.94453 41.48C10.5045 37.76 10.7045 35.64 10.9445 33.88C9.34453 34.2 6.14453 34.64 4.50453 35C3.66453 35.16 2.26453 35.52 2.14453 34.8ZM1.62453 45.36C2.82453 45.2 4.06453 45 5.34453 44.84C5.54453 42.72 5.54453 41.84 5.70453 39.8C5.78453 38.6 7.50453 38.2 7.50453 39.84C7.50453 41.72 7.42453 42.84 7.46453 44.6C10.0645 44.36 12.7445 44.16 15.2245 43.92C15.5445 40.16 15.7445 36.28 15.9845 32.92C16.1045 31.68 18.1045 32.08 18.0645 33.2C17.9845 35.6 17.7445 38.6 17.5445 41.52C17.7845 41.36 18.0245 41.24 18.2245 41.16C19.6245 40.8 20.8245 40.68 22.7045 40.56C23.2645 40.52 23.7845 40.92 23.7045 41.36C23.6245 42.04 23.1845 42.48 22.2645 42.6C20.8245 42.8 19.5045 42.88 18.4645 43.16C17.9845 43.36 17.5845 43.48 17.3845 43.96C17.2645 45.32 17.2245 46.64 17.1845 47.8C17.1045 50.16 14.6245 49.76 14.8645 47.96C14.9445 47.28 15.0245 46.56 15.0645 45.84C10.8645 46.28 6.10453 46.6 1.86453 47.4C0.584531 47.64 0.464531 45.6 1.62453 45.36ZM8.62453 49.48C8.78453 47.92 10.6245 48.2 10.5445 49.64C10.4645 51.28 10.3845 52.84 10.3845 54.08C12.8645 53.68 16.4245 52.84 19.1045 52.6C19.8645 52.52 20.3045 53.04 20.3045 53.56C20.3045 54.12 19.9445 54.48 18.8645 54.68C16.1445 55.04 12.8645 55.8 10.0645 56.2C8.94453 56.36 8.06453 55.48 8.10453 54.48C8.10453 52.8 8.38453 51.16 8.62453 49.48ZM30.8183 33.48C31.8583 31.88 33.4183 33.04 32.6583 34.44C32.0983 35.44 31.5783 36.4 31.0583 37.32C32.5783 39.68 33.8183 41.64 35.2983 43.84C36.0183 45.04 34.4183 46.08 33.7383 45.12C32.4183 43.24 31.1783 41.24 29.8583 39.32C28.9383 40.88 27.9783 42.4 26.9783 43.96C25.8583 45.6 24.4183 44.28 25.0183 43.12C27.2183 39.24 28.8983 36.92 30.8183 33.48ZM40.3783 32.76C40.4183 31.52 42.4583 31.88 42.4583 32.96C42.3783 37.16 41.8983 41.56 41.8183 45.64C42.4183 45.68 42.9783 46 42.9783 46.88C42.9783 48.52 42.8583 50.36 42.6983 52.12C42.6583 53.04 42.0983 54.08 41.0983 54.32C39.3383 54.72 37.1783 54.92 35.4983 55.56C34.6183 55.84 33.2583 55.28 33.2183 54.44C33.0983 51.68 33.2183 49.72 33.5383 47.44C35.6583 47.12 37.6983 46.8 39.5783 46.2C40.0183 41.36 40.1383 37.36 40.3783 32.76ZM35.4183 49.24C35.2183 50.72 35.1383 52.08 35.2183 53.36L40.6183 52.16L40.8583 47.88C39.3383 48.6 37.6183 48.84 35.4183 49.24ZM48.7108 44.2C48.5908 43.4 48.5108 42.56 49.3508 42C50.8308 40.16 53.4308 39.28 54.9108 39.64C55.9908 39.92 56.8308 41.2 56.5908 42.32C56.1508 44.8 53.9508 47.88 51.5908 47.8C50.0308 47.76 48.4308 46.24 48.7108 44.2ZM51.1108 44.44C51.1108 44.92 51.0708 45.68 51.7908 45.72C52.6708 45.8 54.0708 43.96 54.3908 42.8C54.5908 42.2 54.2308 41.6 53.7508 41.68C52.3108 41.8 51.0708 43.72 51.1108 44.44ZM61.9108 36.12C61.9908 34.88 64.0308 35.24 64.0308 36.36C63.9908 40.68 63.5108 46.36 63.4708 50.52C63.4308 52.92 61.0708 52.56 61.2308 50.8C61.5508 45.8 61.7108 40.76 61.9108 36.12ZM80.5836 31.44C83.5436 31.08 87.2636 30.64 88.9436 30.2C91.3436 29.56 92.3036 29.72 92.3836 30.84C92.3836 31.48 91.9036 32.16 90.9836 32.2C90.8636 32.2 90.7436 32.2 90.6636 32.24C90.2636 34.6 90.1836 36.96 90.0636 39.32C90.6636 39.24 91.3036 39.16 91.9436 39.08C93.5036 38.92 93.8636 40.84 92.2236 41.12C88.8636 41.64 85.6636 42.16 82.3836 42.64C80.3436 42.92 80.4636 40.84 81.9036 40.6C82.5036 40.52 83.1036 40.4 83.7036 40.32C83.5436 38.08 83.5036 35.12 83.6236 33.04C82.8636 33.2 82.1036 33.32 81.2636 33.4C79.6236 33.64 79.4636 31.56 80.5836 31.44ZM88.5836 32.4C87.5836 32.52 86.6636 32.64 85.7036 32.76C85.6636 35.04 85.6636 38.28 85.9036 39.96C86.5836 39.84 87.3036 39.76 88.0236 39.64C88.0236 37.4 88.0636 34.8 88.5836 32.4ZM96.9036 30.12C96.9436 28.88 99.0636 29.24 99.0236 30.32C98.9836 34.64 98.6636 38.72 98.4236 42.88C98.4236 43.16 98.3436 43.4 98.2636 43.56C98.7836 43.92 99.1836 44.48 99.1436 44.92C98.9436 46.56 98.2636 48.96 97.6636 49.48C95.9436 50.8 92.9836 51.68 91.8236 52.44C91.4636 52.64 91.2236 53.24 91.3836 53.8C91.5036 54.24 91.9436 54.44 92.4636 54.36C94.1836 54.12 95.1436 53.84 96.5036 53.36C97.3036 53.08 98.2236 52.4 98.9036 52.28C99.3836 52.2 99.9836 52.52 100.184 53C100.304 53.56 100.424 54.44 98.7036 54.8C96.3436 55.48 94.8236 56.16 92.5436 56.4C90.5436 56.56 89.2636 55.44 89.0236 54C88.8236 52.8 89.2636 51.48 90.1436 51C92.0636 49.84 94.1836 49.24 96.1436 48C96.5836 47.08 96.7436 46.24 96.9436 45.28C94.5436 45.44 92.9836 46 90.5836 46.68C89.7836 46.92 88.3036 47.08 88.1436 46.24C88.0236 45.48 88.8636 44.92 89.6236 44.72C91.7436 44 94.3436 43.48 96.0636 43.28V43C96.5036 38.16 96.6636 34.72 96.9036 30.12ZM110.636 44.8H110.436C110.636 46.48 110.796 48.12 111.036 49.76C111.916 49.68 112.836 49.56 113.756 49.44C113.956 47.8 114.116 46.36 114.396 44.8C114.636 43.64 116.436 43.36 116.276 44.92C116.156 46.44 116.036 47.76 115.956 49.16C117.516 49 118.956 48.88 120.316 48.76C121.796 48.68 122.116 50.32 120.636 50.52C116.316 51.2 110.196 52.08 105.636 52.84C104.316 53.08 104.276 50.8 105.396 50.6C106.476 50.44 107.636 50.28 108.876 50.08C108.836 48.32 108.636 46.64 108.636 44.76C108.636 44.6 108.636 44.48 108.676 44.36C107.676 43.8 107.276 42.76 107.316 41.72C107.396 38.12 110.636 34.92 113.636 35.28C114.996 35.48 116.396 36.12 116.276 38.4C116.076 41.2 113.556 44.72 110.636 44.8ZM110.076 42.64C111.396 43.16 113.716 40.96 114.196 38.24C114.316 37.52 113.796 37.2 113.276 37.2C111.676 37.28 111.356 38.84 110.676 39.8C110.276 40.28 109.756 40.44 109.556 41.12C109.276 41.84 109.556 42.4 110.076 42.64ZM126.876 34.48C126.516 32.36 126.116 30.6 125.636 28.2C125.356 27.04 127.236 26.16 127.556 27.4C128.076 29.72 128.636 31.92 129.196 34.08C130.436 33.84 131.636 33.6 132.916 33.24C134.236 32.88 134.716 33.28 134.796 33.96C134.876 34.4 134.716 35.2 133.156 35.4C129.356 36.04 124.756 36.76 122.276 37.2C120.716 37.4 120.596 35.28 122.116 35.12C123.836 34.88 125.396 34.68 126.876 34.48ZM129.996 38.16C131.476 38.2 132.636 38.96 132.436 41.24C132.156 44.04 128.636 47 126.196 46.68C125.076 46.56 124.316 45.68 124.316 44.48C124.356 42 127.116 38.08 129.996 38.16ZM129.436 40.36C128.236 40.6 126.556 42.68 126.556 43.88C126.556 44.16 126.556 44.44 126.956 44.44C128.116 44.44 130.076 42.32 130.236 41.12C130.316 40.4 129.836 40.28 129.436 40.36ZM139.676 30.64C139.756 29.4 141.876 29.76 141.836 30.84C141.796 33.04 141.676 35.32 141.556 37.6C143.636 37.2 146.436 36.76 148.676 36.24C148.996 36.16 149.756 36.44 149.756 36.96C149.716 37.68 149.436 38.04 148.436 38.32C146.596 38.92 144.076 39.36 142.196 39.88C141.796 40 141.476 40.32 141.356 40.76C141.276 41.88 141.236 42.96 141.236 44C141.196 46.4 138.716 46.04 138.876 44.28C139.316 39.44 139.476 35.24 139.676 30.64ZM133.996 45.8C134.036 44.48 135.916 44.4 135.956 45.72C135.956 46.88 135.916 48.16 135.876 49.68C137.676 49.52 140.076 48.48 141.716 48.08C141.796 47.04 141.876 45.96 141.916 44.68C141.916 43.56 144.036 43.28 143.956 44.72C143.836 47.6 143.636 50.2 143.356 53.4C143.276 54.24 142.636 54.96 142.036 55.2C140.396 55.72 137.636 56.64 136.156 56.88C134.916 57 133.716 56.28 133.716 55.56C133.796 51.96 133.876 48.76 133.996 45.8ZM135.836 51.92C135.796 52.8 135.756 53.76 135.756 54.8C137.556 54.4 140.156 53.84 141.276 52.96C141.356 52.16 141.396 51.44 141.476 50.72C141.356 50.52 141.036 50.4 140.716 50.48C139.476 50.68 137.316 51.36 135.836 51.92ZM153.573 38.16C153.693 37.32 154.413 36.84 154.973 37C155.453 37.16 155.573 37.84 155.573 38.28C155.453 40.16 155.293 44.84 155.293 46.64C157.653 46.24 161.973 45.44 165.613 44.92C165.733 41.92 165.853 38.92 165.973 36.12C166.053 34.88 168.093 35.24 168.093 36.36C168.053 40.68 167.573 46.36 167.533 50.52C167.493 52.92 165.133 52.56 165.293 50.8C165.373 49.52 165.453 48.24 165.493 46.96C161.533 47.52 157.413 48.32 154.933 48.76C153.893 48.96 152.973 48.08 153.053 47.04C153.133 45.12 153.213 40.12 153.573 38.16ZM179.955 36.2C181.555 35.92 181.715 37.68 180.595 38.12C178.915 38.72 177.155 39.08 175.475 39.4C175.475 41.8 175.555 44.32 175.755 46.84C178.515 46.28 182.275 45.84 184.915 45.56C185.195 41.76 185.395 37.72 185.635 34.88C185.675 33.68 187.715 34.08 187.675 35.16C187.595 37.4 187.395 40.68 187.155 43.92C187.395 43.72 187.635 43.56 187.875 43.52C189.235 43.16 190.475 43.04 192.315 42.96C192.875 42.92 193.395 43.32 193.315 43.76C193.275 44.4 193.075 44.84 192.115 45C190.715 45.2 189.155 45.28 188.075 45.6C187.635 45.76 187.195 45.92 186.995 46.44C186.835 48.56 186.755 50.52 186.715 51.96C186.635 54.36 184.155 53.96 184.395 52.16C184.515 50.8 184.675 49.24 184.795 47.56C182.115 47.88 178.795 48.24 176.195 48.88C174.635 49.28 173.595 48.6 173.475 47.2C173.275 44.56 173.155 42.2 173.195 39.36C173.195 38.28 173.635 37.68 175.035 37.4C177.715 36.92 178.875 36.4 179.955 36.2ZM196.788 33.2C196.748 32.16 198.548 31.76 198.708 33.2C199.228 38.16 199.268 41.2 199.388 46.12C199.428 47.64 197.268 48.4 197.068 46.12C197.068 45.44 197.388 44.72 197.268 44.16C197.108 39.56 197.068 38.04 196.788 33.2ZM198.068 50.8C198.908 50.68 199.788 51.32 200.028 52.48C200.188 53.4 199.308 54.52 198.348 54.64C197.468 54.8 196.748 53.8 196.628 52.6C196.588 51.84 197.268 50.92 198.068 50.8Z" fill="white"/>
</svg>
